
<svg xmlns="http://www.w3.org/2000/svg" xmlns:xlink="http://www.w3.org/1999/xlink" width="50" height="50.03" viewBox="0 0 50 50.03">
  <metadata><?xpacket begin="﻿" id="W5M0MpCehiHzreSzNTczkc9d"?>
    <x:xmpmeta xmlns:x="adobe:ns:meta/" x:xmptk="Adobe XMP Core 5.6-c138 79.159824, 2016/09/14-01:09:01        ">
      <rdf:RDF xmlns:rdf="http://www.w3.org/1999/02/22-rdf-syntax-ns#">
        <rdf:Description rdf:about=""/>
      </rdf:RDF>
    </x:xmpmeta>





















    <?xpacket end="w"?></metadata>
  <defs>
    <style>
      .cls-1 {
      fill-rule: evenodd;
      filter: url(#filter);
      }
    </style>
    <filter id="filter" x="985" y="5919" width="50" height="50.03" filterUnits="userSpaceOnUse">
      <feFlood result="flood" flood-color="#7be352"/>
      <feComposite result="composite" operator="in" in2="SourceGraphic"/>
      <feBlend result="blend" in2="SourceGraphic"/>
    </filter>
  </defs>
  <path class="cls-1" d="M1033.39,5967.41H1035v1.61h-1.61v-1.61Zm1.61-30.66v-1.61h-16.13v1.61h1.61v7.26h-1.61v1.61h1.61v7.27h-2.5l-3.05-29.05h1.52V5919h-9.68v4.84h1.53l-3.06,29.05h-1.32l-12.5-14.86a3.218,3.218,0,1,0-4,3.45v25.93H985v1.61h46.77v-1.61h-1.61v-8.07H1035v-6.45h-1.61v-7.27H1035v-1.61h-1.61v-7.26H1035Zm-12.9,0h9.67v7.26h-9.67v-7.26Zm0,8.87h9.67v7.27h-9.67v-7.27Zm-5.79,6.79-6.78-6.79h6.07Zm-0.96-9.12-5.15-5.73h4.55Zm-5.85-15.42,0.42-4.03h3.39l0.42,4.03h-4.23Zm4.4,1.62,0.56,5.31-3.72-5.31h3.16Zm-0.61,6.45h-4.64l0.6-5.77Zm-4.9-15.33h6.45v1.62h-6.45v-1.62Zm0.04,17.39,5.4,6.01h-6.03Zm-0.84,7.97,6.91,6.92h-7.64Zm-5.78,6.92h-3.483l-1.109-1.62h3.242Zm-5.12-6.09,2.408,2.86H996.11l-0.357-.52Zm-1.177-1.4-0.857,2.14-2.932-4.26,3.133,1.34Zm-4.531-5.38,1.564,1.85-2.323-.99A3.25,3.25,0,0,0,990.982,5940.02Zm-4.369-1.66a1.613,1.613,0,1,1,1.613,1.62A1.612,1.612,0,0,1,986.613,5938.36Zm8.871,29.05h-6.452v-25.2l4.9,7.13-0.006.02,0.025,0.01,2.416,3.52h-5.725v6.45h4.839v8.07Zm8.066-3.23h-0.81v1.61h0.81v1.62H997.1v-1.62h4.033v-1.61H997.1v-4.84h6.453v4.84Zm16.93,3.23h-15.32v-8.07h15.32v8.07Zm8.07-3.23h-0.81v1.61h0.81v1.62h-6.45v-1.62h4.03v-1.61h-4.03v-4.84h6.45v4.84Zm4.84-6.45H992.258v-3.23h41.132v3.23Zm-9.68-19.37h1.61v1.62h-1.61v-1.62Zm3.23,0h1.61v1.62h-1.61v-1.62Zm1.61,11.3h1.61v1.61h-1.61v-1.61Zm-3.23,0h1.62v1.61h-1.62v-1.61Z" transform="translate(-985 -5919)"/>
</svg>
