<svg xmlns="http://www.w3.org/2000/svg" xmlns:xlink="http://www.w3.org/1999/xlink" width="46" height="44" viewBox="0 0 46 44">
  <metadata><?xpacket begin="﻿" id="W5M0MpCehiHzreSzNTczkc9d"?>
<x:xmpmeta xmlns:x="adobe:ns:meta/" x:xmptk="Adobe XMP Core 5.6-c138 79.159824, 2016/09/14-01:09:01        ">
   <rdf:RDF xmlns:rdf="http://www.w3.org/1999/02/22-rdf-syntax-ns#">
      <rdf:Description rdf:about=""/>
   </rdf:RDF>
</x:xmpmeta>
                                                                                                    
                                                                                                    
                                                                                                    
                                                                                                    
                                                                                                    
                                                                                                    
                                                                                                    
                                                                                                    
                                                                                                    
                                                                                                    
                                                                                                    
                                                                                                    
                                                                                                    
                                                                                                    
                                                                                                    
                                                                                                    
                                                                                                    
                                                                                                    
                                                                                                    
                                                                                                    
                           
<?xpacket end="w"?></metadata>
<defs>
    <style>
      .cls-1 {
        filter: url(#filter);
      }

      .cls-2 {
        fill: #0e81ff;
        fill-rule: evenodd;
      }
    </style>
    <filter id="filter" filterUnits="userSpaceOnUse">
      <feFlood result="flood" flood-color="#7be352"/>
      <feComposite result="composite" operator="in" in2="SourceGraphic"/>
      <feBlend result="blend" in2="SourceGraphic"/>
    </filter>
  </defs>
  <g id="green-building" class="cls-1">
    <path id="Path" class="cls-2" d="M527,6185a1,1,0,0,1-1-1.01v-34.34a1,1,0,0,0-1-1.01h-9.1a7.254,7.254,0,0,0-6.977,5.26c-3.906,13.14-16.3,29.76-16.822,30.46a0.987,0.987,0,0,1-1.4.2,1.023,1.023,0,0,1-.194-1.42c0.127-.16,12.7-17.03,16.5-29.82a9.245,9.245,0,0,1,8.892-6.7H525a3.019,3.019,0,0,1,3,3.03v34.34A1,1,0,0,1,527,6185Z" transform="translate(-487 -6141)"/>
    <path id="Path-2" data-name="Path" class="cls-2" d="M532,6185H488a1.01,1.01,0,0,1,0-2.02h44A1.01,1.01,0,0,1,532,6185Z" transform="translate(-487 -6141)"/>
    <path id="Path-3" data-name="Path" class="cls-2" d="M507.734,6156.65a1.007,1.007,0,0,1-.532-1.86l3.1-1.97a13.925,13.925,0,0,1,7.443-2.16H527a1.01,1.01,0,0,1,0,2.02h-9.258a11.924,11.924,0,0,0-6.38,1.85l-3.1,1.97A1.025,1.025,0,0,1,507.734,6156.65Z" transform="translate(-487 -6141)"/>
    <path id="Path-4" data-name="Path" class="cls-2" d="M505.4,6161.36a1,1,0,0,1-.857-0.48,1.019,1.019,0,0,1,.338-1.39l4.5-2.75a13.947,13.947,0,0,1,7.249-2.04H527a1.01,1.01,0,0,1,0,2.02H516.628a11.867,11.867,0,0,0-6.214,1.75l-4.5,2.75A0.967,0.967,0,0,1,505.4,6161.36Z" transform="translate(-487 -6141)"/>
    <path id="Path-5" data-name="Path" class="cls-2" d="M503.468,6165.81a1.007,1.007,0,0,1-.887-0.54,1.022,1.022,0,0,1,.421-1.37l6.7-3.54a13.927,13.927,0,0,1,6.5-1.62H527a1.01,1.01,0,0,1,0,2.02H516.2a11.929,11.929,0,0,0-5.574,1.39l-6.7,3.54A0.974,0.974,0,0,1,503.468,6165.81Z" transform="translate(-487 -6141)"/>
    <path id="Path-6" data-name="Path" class="cls-2" d="M501,6169.85a1,1,0,0,1-.91-0.59,1.015,1.015,0,0,1,.5-1.34l8.208-3.77a14.938,14.938,0,0,1,6.273-1.37H527a1.01,1.01,0,0,1,0,2.02H515.067a12.962,12.962,0,0,0-5.445,1.19l-8.209,3.77A1,1,0,0,1,501,6169.85Z" transform="translate(-487 -6141)"/>
    <path id="Path-7" data-name="Path" class="cls-2" d="M498.8,6173.82a1.007,1.007,0,0,1-.35-1.95l11-4.16a13.9,13.9,0,0,1,4.9-.89H527a1.01,1.01,0,0,1,0,2.02H514.35a11.826,11.826,0,0,0-4.2.77l-11,4.15A1.069,1.069,0,0,1,498.8,6173.82Z" transform="translate(-487 -6141)"/>
    <path id="Path-8" data-name="Path" class="cls-2" d="M496.666,6177.39a0.994,0.994,0,0,1-.96-0.73,1.014,1.014,0,0,1,.681-1.25l13.552-3.99a14.036,14.036,0,0,1,3.916-.56H527a1.01,1.01,0,0,1,0,2.02H513.855a11.928,11.928,0,0,0-3.357.48l-13.552,3.99A0.9,0.9,0,0,1,496.666,6177.39Z" transform="translate(-487 -6141)"/>
    <path id="Path-9" data-name="Path" class="cls-2" d="M494.2,6180.89a1,1,0,0,1-.972-0.78,1.009,1.009,0,0,1,.745-1.21l15.338-3.63a13.727,13.727,0,0,1,3.191-.37H527a1.01,1.01,0,0,1,0,2.02H512.5a12,12,0,0,0-2.735.32l-15.338,3.63A1.785,1.785,0,0,1,494.2,6180.89Z" transform="translate(-487 -6141)"/>
    <path id="Path-10" data-name="Path" class="cls-2" d="M492.665,6183.99a1.013,1.013,0,0,1-.169-2.01l16.233-2.83a13.633,13.633,0,0,1,2.388-.21H527a1.01,1.01,0,0,1,0,2.02H511.117a11.666,11.666,0,0,0-2.046.18l-16.234,2.83A1.02,1.02,0,0,1,492.665,6183.99Z" transform="translate(-487 -6141)"/>
    <path id="Composite_Path" data-name="Composite Path" class="cls-2" d="M493,6169.74c-3.309,0-6-3.6-6-8.03s2.691-8.02,6-8.02,6,3.6,6,8.02S496.309,6169.74,493,6169.74Zm0-14.03c-2.169,0-4,2.75-4,6s1.831,6.01,4,6.01,4-2.75,4-6.01S495.168,6155.71,493,6155.71Z" transform="translate(-487 -6141)"/>
    <path id="Path-11" data-name="Path" class="cls-2" d="M497.92,6167.72a4.027,4.027,0,0,1-2.032-.57l1.012-1.75a1.941,1.941,0,0,0,1.02.3c1.582,0,2.92-2.06,2.92-4.49s-1.338-4.49-2.92-4.49a2.055,2.055,0,0,0-1.119.35l-1.094-1.69a4.08,4.08,0,0,1,2.213-.68c2.713,0,4.92,2.92,4.92,6.51S500.633,6167.72,497.92,6167.72Z" transform="translate(-487 -6141)"/>
    <path id="Path-12" data-name="Path" class="cls-2" d="M493,6181.97a1,1,0,0,1-1-1.01v-12.12a1,1,0,1,1,2,0v12.12A1,1,0,0,1,493,6181.97Z" transform="translate(-487 -6141)"/>
    <path id="Path-13" data-name="Path" class="cls-2" d="M499,6173.89h-2v-7.07h2v7.07Z" transform="translate(-487 -6141)"/>
    <path id="Path-14" data-name="Path" class="cls-2" d="M525,6148.64a1,1,0,0,1-1-1.01v-4.28a33.093,33.093,0,0,1-5,.27,10.034,10.034,0,0,0-3.482.68,2.388,2.388,0,0,0-1.518,2.25v1.08a1,1,0,1,1-2,0v-1.08a4.4,4.4,0,0,1,2.827-4.14,11.846,11.846,0,0,1,4.173-.81,27.718,27.718,0,0,0,5.369-.38A0.994,0.994,0,0,1,525,6141a1,1,0,0,1,1,1.01v5.62A1,1,0,0,1,525,6148.64Z" transform="translate(-487 -6141)"/>
  </g>
</svg>
