<svg xmlns="http://www.w3.org/2000/svg" xmlns:xlink="http://www.w3.org/1999/xlink" width="46" height="47" viewBox="0 0 46 47">
  <metadata><?xpacket begin="﻿" id="W5M0MpCehiHzreSzNTczkc9d"?>
<x:xmpmeta xmlns:x="adobe:ns:meta/" x:xmptk="Adobe XMP Core 5.6-c138 79.159824, 2016/09/14-01:09:01        ">
   <rdf:RDF xmlns:rdf="http://www.w3.org/1999/02/22-rdf-syntax-ns#">
      <rdf:Description rdf:about=""/>
   </rdf:RDF>
</x:xmpmeta>
                                                                                                    
                                                                                                    
                                                                                                    
                                                                                                    
                                                                                                    
                                                                                                    
                                                                                                    
                                                                                                    
                                                                                                    
                                                                                                    
                                                                                                    
                                                                                                    
                                                                                                    
                                                                                                    
                                                                                                    
                                                                                                    
                                                                                                    
                                                                                                    
                                                                                                    
                                                                                                    
                           
<?xpacket end="w"?></metadata>
<defs>
    <style>
      .cls-1 {
        filter: url(#filter);
      }

      .cls-2 {
        fill: #0e81ff;
        fill-rule: evenodd;
      }
    </style>
    <filter id="filter" filterUnits="userSpaceOnUse">
      <feFlood result="flood" flood-color="#7be352"/>
      <feComposite result="composite" operator="in" in2="SourceGraphic"/>
      <feBlend result="blend" in2="SourceGraphic"/>
    </filter>
  </defs>
  <g id="large-buildin-3" class="cls-1">
    <path id="Composite_Path" data-name="Composite Path" class="cls-2" d="M504,5939.86h-4a1,1,0,0,1-1-1.01v-4.02a1,1,0,0,1,1-1.01h4a1,1,0,0,1,1,1.01v4.02A1,1,0,0,1,504,5939.86Zm-3-2.02h2v-2.01h-2v2.01Z" transform="translate(-487 -5919)"/>
    <path id="Composite_Path-2" data-name="Composite Path" class="cls-2" d="M512,5939.86h-4a1,1,0,0,1-1-1.01v-4.02a1,1,0,0,1,1-1.01h4a1,1,0,0,1,1,1.01v4.02A1,1,0,0,1,512,5939.86Zm-3-2.02h2v-2.01h-2v2.01Z" transform="translate(-487 -5919)"/>
    <path id="Composite_Path-3" data-name="Composite Path" class="cls-2" d="M520,5939.86h-4a1,1,0,0,1-1-1.01v-4.02a1,1,0,0,1,1-1.01h4a1,1,0,0,1,1,1.01v4.02A1,1,0,0,1,520,5939.86Zm-3-2.02h2v-2.01h-2v2.01Z" transform="translate(-487 -5919)"/>
    <path id="Composite_Path-4" data-name="Composite Path" class="cls-2" d="M504,5947.9h-4a1,1,0,0,1-1-1v-4.03a1,1,0,0,1,1-1h4a1,1,0,0,1,1,1v4.03A1,1,0,0,1,504,5947.9Zm-3-2.01h2v-2.01h-2v2.01Z" transform="translate(-487 -5919)"/>
    <path id="Composite_Path-5" data-name="Composite Path" class="cls-2" d="M512,5947.9h-4a1,1,0,0,1-1-1v-4.03a1,1,0,0,1,1-1h4a1,1,0,0,1,1,1v4.03A1,1,0,0,1,512,5947.9Zm-3-2.01h2v-2.01h-2v2.01Z" transform="translate(-487 -5919)"/>
    <path id="Composite_Path-6" data-name="Composite Path" class="cls-2" d="M520,5947.9h-4a1,1,0,0,1-1-1v-4.03a1,1,0,0,1,1-1h4a1,1,0,0,1,1,1v4.03A1,1,0,0,1,520,5947.9Zm-3-2.01h2v-2.01h-2v2.01Z" transform="translate(-487 -5919)"/>
    <path id="Composite_Path-7" data-name="Composite Path" class="cls-2" d="M504,5955.95h-4a1,1,0,0,1-1-1v-4.03a1,1,0,0,1,1-1h4a1,1,0,0,1,1,1v4.03A1,1,0,0,1,504,5955.95Zm-3-2.01h2v-2.01h-2v2.01Z" transform="translate(-487 -5919)"/>
    <path id="Composite_Path-8" data-name="Composite Path" class="cls-2" d="M512,5955.95h-4a1,1,0,0,1-1-1v-4.03a1,1,0,0,1,1-1h4a1,1,0,0,1,1,1v4.03A1,1,0,0,1,512,5955.95Zm-3-2.01h2v-2.01h-2v2.01Z" transform="translate(-487 -5919)"/>
    <path id="Composite_Path-9" data-name="Composite Path" class="cls-2" d="M520,5955.95h-4a1,1,0,0,1-1-1v-4.03a1,1,0,0,1,1-1h4a1,1,0,0,1,1,1v4.03A1,1,0,0,1,520,5955.95Zm-3-2.01h2v-2.01h-2v2.01Z" transform="translate(-487 -5919)"/>
    <path id="Path" class="cls-2" d="M524,5966.01a1,1,0,0,1-1-1v-33.2a1,1,0,0,0-1-1.01H498a1,1,0,0,0-1,1.01v33.2a1,1,0,0,1-2,0v-33.2a3.011,3.011,0,0,1,3-3.02h24a3.011,3.011,0,0,1,3,3.02v33.2A1,1,0,0,1,524,5966.01Z" transform="translate(-487 -5919)"/>
    <path id="Path-2" data-name="Path" class="cls-2" d="M532,5966.01H488a1.005,1.005,0,0,1,0-2.01h44A1.005,1.005,0,0,1,532,5966.01Z" transform="translate(-487 -5919)"/>
    <path id="Path-3" data-name="Path" class="cls-2" d="M516,5966.01a1,1,0,0,1-1-1v-6.04H505v6.04a1,1,0,0,1-2,0v-7.04a1,1,0,0,1,1-1.01h12a1,1,0,0,1,1,1.01v7.04A1,1,0,0,1,516,5966.01Z" transform="translate(-487 -5919)"/>
    <path id="Path-4" data-name="Path" class="cls-2" d="M517,5926.78a0.984,0.984,0,0,1-.707-0.3l-4.879-4.91a2,2,0,0,0-2.828,0l-4.879,4.91a1,1,0,1,1-1.414-1.42l4.879-4.91a3.985,3.985,0,0,1,5.656,0l4.879,4.91a1.006,1.006,0,0,1,0,1.42A0.984,0.984,0,0,1,517,5926.78Z" transform="translate(-487 -5919)"/>
    <path id="Path-5" data-name="Path" class="cls-2" d="M521,5929.79a1,1,0,0,1-1-1v-1.01a1,1,0,0,0-1-1H501a1,1,0,0,0-1,1v1.01a1,1,0,0,1-2,0v-1.01a3.017,3.017,0,0,1,3-3.02h18a3.017,3.017,0,0,1,3,3.02v1.01A1,1,0,0,1,521,5929.79Z" transform="translate(-487 -5919)"/>
    <path id="Path-6" data-name="Path" class="cls-2" d="M531,5966.01a1,1,0,0,1-1-1v-30.18a1,1,0,0,0-1-1.01h-5a1.005,1.005,0,0,1,0-2.01h5a3.011,3.011,0,0,1,3,3.02v30.18A1,1,0,0,1,531,5966.01Z" transform="translate(-487 -5919)"/>
    <path id="Path-7" data-name="Path" class="cls-2" d="M528,5937.84h-4a1.005,1.005,0,0,1,0-2.01h4A1.005,1.005,0,0,1,528,5937.84Z" transform="translate(-487 -5919)"/>
    <path id="Path-8" data-name="Path" class="cls-2" d="M528,5941.87h-4a1.005,1.005,0,0,1,0-2.01h4A1.005,1.005,0,0,1,528,5941.87Z" transform="translate(-487 -5919)"/>
    <path id="Path-9" data-name="Path" class="cls-2" d="M528,5945.89h-4a1.005,1.005,0,0,1,0-2.01h4A1.005,1.005,0,0,1,528,5945.89Z" transform="translate(-487 -5919)"/>
    <path id="Path-10" data-name="Path" class="cls-2" d="M528,5949.92h-4a1.01,1.01,0,0,1,0-2.02h4A1.01,1.01,0,0,1,528,5949.92Z" transform="translate(-487 -5919)"/>
    <path id="Path-11" data-name="Path" class="cls-2" d="M528,5953.94h-4a1.005,1.005,0,0,1,0-2.01h4A1.005,1.005,0,0,1,528,5953.94Z" transform="translate(-487 -5919)"/>
    <path id="Path-12" data-name="Path" class="cls-2" d="M528,5957.97h-4a1.01,1.01,0,0,1,0-2.02h4A1.01,1.01,0,0,1,528,5957.97Z" transform="translate(-487 -5919)"/>
    <path id="Path-13" data-name="Path" class="cls-2" d="M528,5961.99h-4a1.005,1.005,0,0,1,0-2.01h4A1.005,1.005,0,0,1,528,5961.99Z" transform="translate(-487 -5919)"/>
    <path id="Path-14" data-name="Path" class="cls-2" d="M489,5966.01a1,1,0,0,1-1-1v-30.18a3.011,3.011,0,0,1,3-3.02h5a1.005,1.005,0,0,1,0,2.01h-5a1,1,0,0,0-1,1.01v30.18A1,1,0,0,1,489,5966.01Z" transform="translate(-487 -5919)"/>
    <path id="Path-15" data-name="Path" class="cls-2" d="M496,5937.84h-4a1.005,1.005,0,0,1,0-2.01h4A1.005,1.005,0,0,1,496,5937.84Z" transform="translate(-487 -5919)"/>
    <path id="Path-16" data-name="Path" class="cls-2" d="M496,5941.87h-4a1.005,1.005,0,0,1,0-2.01h4A1.005,1.005,0,0,1,496,5941.87Z" transform="translate(-487 -5919)"/>
    <path id="Path-17" data-name="Path" class="cls-2" d="M496,5945.89h-4a1.005,1.005,0,0,1,0-2.01h4A1.005,1.005,0,0,1,496,5945.89Z" transform="translate(-487 -5919)"/>
    <path id="Path-18" data-name="Path" class="cls-2" d="M496,5949.92h-4a1.01,1.01,0,0,1,0-2.02h4A1.01,1.01,0,0,1,496,5949.92Z" transform="translate(-487 -5919)"/>
    <path id="Path-19" data-name="Path" class="cls-2" d="M496,5953.94h-4a1.005,1.005,0,0,1,0-2.01h4A1.005,1.005,0,0,1,496,5953.94Z" transform="translate(-487 -5919)"/>
    <path id="Path-20" data-name="Path" class="cls-2" d="M496,5957.97h-4a1.01,1.01,0,0,1,0-2.02h4A1.01,1.01,0,0,1,496,5957.97Z" transform="translate(-487 -5919)"/>
    <path id="Path-21" data-name="Path" class="cls-2" d="M496,5961.99h-4a1.005,1.005,0,0,1,0-2.01h4A1.005,1.005,0,0,1,496,5961.99Z" transform="translate(-487 -5919)"/>
  </g>
</svg>
