<svg xmlns="http://www.w3.org/2000/svg" width="46.031" height="46.03" viewBox="0 0 46.031 46.03">
  <metadata><?xpacket begin="﻿" id="W5M0MpCehiHzreSzNTczkc9d"?>
<x:xmpmeta xmlns:x="adobe:ns:meta/" x:xmptk="Adobe XMP Core 5.6-c138 79.159824, 2016/09/14-01:09:01        ">
   <rdf:RDF xmlns:rdf="http://www.w3.org/1999/02/22-rdf-syntax-ns#">
      <rdf:Description rdf:about=""/>
   </rdf:RDF>
</x:xmpmeta>
                                                                                                    
                                                                                                    
                                                                                                    
                                                                                                    
                                                                                                    
                                                                                                    
                                                                                                    
                                                                                                    
                                                                                                    
                                                                                                    
                                                                                                    
                                                                                                    
                                                                                                    
                                                                                                    
                                                                                                    
                                                                                                    
                                                                                                    
                                                                                                    
                                                                                                    
                                                                                                    
                           
<?xpacket end="w"?></metadata>
<defs>
    <style>
      .cls-1 {
        fill: #7be352;
        fill-rule: evenodd;
      }
    </style>
  </defs>
  <path id="Composite_Path" data-name="Composite Path" class="cls-1" d="M816.56,7283.06c-0.851-.82-1.486-1.43-1.486-1.43a5.556,5.556,0,0,0-7.883,0l-2.805,2.82a5.614,5.614,0,0,0,0,7.91l0.915,0.91a7.485,7.485,0,0,1,1.91,7.41c-1.969,6.59-7.308,9.73-11.44,11.21a7.48,7.48,0,0,1-7.535-1.51l-0.951-.86a5.556,5.556,0,0,0-7.883,0l-2.805,2.81a5.613,5.613,0,0,0,0,7.91l1.509,1.52a14.492,14.492,0,0,0,10.254,4.27,14,14,0,0,0,5.827-1.27,55.925,55.925,0,0,0,15.5-11.31,48.541,48.541,0,0,0,10.222-14.44A14.421,14.421,0,0,0,816.56,7283.06Zm-10.749,2.82,2.8-2.82a3.628,3.628,0,0,1,5.052.02s0.393,0.37.971,0.93l-7.863,7.89c-0.018-.02-0.033-0.04-0.05-0.06l-0.915-.91A3.585,3.585,0,0,1,805.811,7285.88Zm-27.789,32.94a3.6,3.6,0,0,1,0-5.06l2.8-2.81a3.538,3.538,0,0,1,5.07.04l0.988,0.89c0.177,0.16.37,0.29,0.555,0.44l-7.947,7.97Zm40.033-20.61a46.477,46.477,0,0,1-9.795,13.81,53.718,53.718,0,0,1-14.911,10.9,12.278,12.278,0,0,1-12.32-1.31l8.13-8.16-0.093-.09a9.455,9.455,0,0,0,7.381.43c4.571-1.63,10.483-5.13,12.694-12.53a9.4,9.4,0,0,0-1.113-7.75l8.012-8.04A12.329,12.329,0,0,1,818.055,7298.21Z" transform="translate(-775 -7280)"/>
</svg>
