<svg xmlns="http://www.w3.org/2000/svg" width="46" height="46.07" viewBox="0 0 46 46.07">
  <defs>
    <style>
      .cls-1 { filter: url(#filter); } .cls-2 { fill: #0079ff; fill-rule: evenodd; }
    </style>
    <filter id="filter" filterUnits="userSpaceOnUse">
      <feFlood result="flood" flood-color="#7be352"/>
      <feComposite result="composite" operator="in" in2="SourceGraphic"/>
      <feBlend result="blend" in2="SourceGraphic"/>
    </filter>
  </defs>
  <g id="maplocate-3" class="cls-1">
    <path id="Path" class="cls-2" d="M45.007 46.06a1.036 1.036 0 0 1-.625-.22l-9.43-7.55-11.393 7.6a1.016 1.016 0 0 1-1.11 0l-11.395-7.6-9.43 7.55a1 1 0 0 1-1.612-.95l3-18.01a1.013 1.013 0 0 1 .218-.48l5-6.01a1.003 1.003 0 0 1 1.538 1.29l-4.83 5.79-2.525 15.17 7.96-6.37a1.006 1.006 0 0 1 1.18-.05L23 43.85l11.447-7.63a1.007 1.007 0 0 1 1.18.05l7.96 6.37-2.526-15.17-4.826-5.79a1.004 1.004 0 0 1 1.538-1.29l5 6.01a1.012 1.012 0 0 1 .218.48l3 18.01a1 1 0 0 1-.48 1.03 1.024 1.024 0 0 1-.5.14z"/>
    <path id="Path-2" data-name="Path" class="cls-2" d="M11 38.05h-.092a1 1 0 0 1-.9-1.09l1-11.01a1 1 0 1 1 1.992.18l-1 11.01a1 1 0 0 1-1 .91z"/>
    <path id="Path-3" data-name="Path" class="cls-2" d="M35.005 38.05a1 1 0 0 1-1-.91l-1-11.01a1 1 0 1 1 1.993-.18l1 11.01a1 1 0 0 1-.9 1.09h-.092z"/>
    <path id="Path-4" data-name="Path" class="cls-2" d="M23 46.06a1 1 0 0 1-1-1v-9.01a1 1 0 0 1 2 0v9.01a1 1 0 0 1-1 1z"/>
    <path id="Composite_Path" data-name="Composite Path" class="cls-2" d="M23 33.05a.983.983 0 0 1-.606-.21c-.516-.39-12.652-9.75-12.652-19.56a13.258 13.258 0 1 1 26.516 0c0 9.77-12.134 19.16-12.65 19.56a.985.985 0 0 1-.608.21zm0-31.03a11.27 11.27 0 0 0-11.258 11.26c0 7.65 8.834 15.48 11.257 17.48 2.42-2.01 11.256-9.87 11.256-17.48A11.27 11.27 0 0 0 23 2.02z"/>
    <path id="Composite_Path-2" data-name="Composite Path" class="cls-2" d="M23 19.34a6.055 6.055 0 1 1 6.048-6.06A6.062 6.062 0 0 1 23 19.34zm0-10.11a4.05 4.05 0 1 0 4.047 4.05A4.056 4.056 0 0 0 23 9.23z"/>
  </g>
</svg>
