<svg xmlns="http://www.w3.org/2000/svg" viewBox="0 0 47 47">
  <defs>
    <style>
      .cls-1 { filter: url(#filter); } .cls-2 { fill: #0079ff; fill-rule: evenodd; }
    </style>
    <filter id="filter" filterUnits="userSpaceOnUse">
      <feFlood result="flood" flood-color="#7be352"/>
      <feComposite result="composite" operator="in" in2="SourceGraphic"/>
      <feBlend result="blend" in2="SourceGraphic"/>
    </filter>
  </defs>
  <g id="clock" class="cls-1">
    <path id="Composite_Path" data-name="Composite Path" class="cls-2" d="M23.5 47A23.5 23.5 0 1 1 47 23.5 23.52 23.52 0 0 1 23.5 47zm0-45A21.5 21.5 0 1 0 45 23.5 21.52 21.52 0 0 0 23.5 2z"/>
    <path id="Path" class="cls-2" d="M23.28 5.96l-.54.14a1.26 1.26 0 0 1-.27.04.67.67 0 0 1-.16-1.32l1-.3a2.75 2.75 0 0 1 .8-.12.76.76 0 0 1 .8.76v5.64a.76.76 0 1 1-1.5 0V5.96z"/>
    <path id="Path-2" data-name="Path" class="cls-2" d="M37.3 26.82a.73.73 0 0 1 .47-1.3.73.73 0 0 1 .5.2 2 2 0 0 0 1.36.52.88.88 0 0 0 1-.85v-.1c0-.6-.52-.9-1.38-.9H39a.67.67 0 0 1-.65-.7.87.87 0 0 1 .33-.65l1.36-1.38H37.9a.66.66 0 0 1 0-1.34h3.4a.7.7 0 0 1 .78.7 1.12 1.12 0 0 1-.46.85l-1.37 1.3a1.94 1.94 0 0 1 1.88 2 2.28 2.28 0 0 1-2.52 2.3 3.42 3.42 0 0 1-2.3-.8z"/>
    <path id="Composite_Path-2" data-name="Composite Path" class="cls-2" d="M4.67 26.12a.73.73 0 0 1-.36-.63.7.7 0 0 1 .8-.7.78.78 0 0 1 .4.1 2.05 2.05 0 0 0 1.1.3A1.5 1.5 0 0 0 8 23.6a2.12 2.12 0 0 1-1.43.5 2.2 2.2 0 0 1-2.5-2.26v-.02a2.47 2.47 0 0 1 2.67-2.45 2.53 2.53 0 0 1 2.02.76 3.47 3.47 0 0 1 .83 2.64v.02c0 2.2-1.1 3.8-3.1 3.8a3.3 3.3 0 0 1-1.9-.5zM8 21.8v-.03a1.1 1.1 0 0 0-1.2-1.07 1.05 1.05 0 0 0-1.2 1.06v.02a1.07 1.07 0 0 0 1.23 1.05A1.06 1.06 0 0 0 8 21.8z"/>
    <path id="Composite_Path-3" data-name="Composite Path" class="cls-2" d="M21.87 41.87a3.46 3.46 0 0 1-.83-2.65v-.02c0-2.16.98-3.82 3.07-3.82a3.3 3.3 0 0 1 1.7.42.73.73 0 0 1 .4.66.72.72 0 0 1-.7.7.84.84 0 0 1-.4-.1 1.93 1.93 0 0 0-1-.28 1.5 1.5 0 0 0-1.4 1.62 2.42 2.42 0 0 1 1.5-.45 2.2 2.2 0 0 1 2.5 2.23v.02a2.47 2.47 0 0 1-2.7 2.42 2.65 2.65 0 0 1-2.04-.75zm3.16-1.6v-.02a1.07 1.07 0 0 0-1.22-1.02 1.04 1.04 0 0 0-1.2 1v.03a1.08 1.08 0 0 0 1.3 1.04 1.05 1.05 0 0 0 1.2-1.03z"/>
    <path id="Path-3" data-name="Path" class="cls-2" d="M36.2 10.8a1 1 0 0 0-1.4 0l-10.02 10a2.9 2.9 0 0 0-2.57 0l-7-7a1 1 0 0 0-1.4 1.4l7 7a3 3 0 1 0 5.4 0l10-10a1 1 0 0 0 0-1.4z"/>
  </g>
</svg>
