<svg xmlns="http://www.w3.org/2000/svg" xmlns:xlink="http://www.w3.org/1999/xlink" width="47" height="47" viewBox="0 0 47 47">
  <metadata><?xpacket begin="﻿" id="W5M0MpCehiHzreSzNTczkc9d"?>
<x:xmpmeta xmlns:x="adobe:ns:meta/" x:xmptk="Adobe XMP Core 5.6-c138 79.159824, 2016/09/14-01:09:01        ">
   <rdf:RDF xmlns:rdf="http://www.w3.org/1999/02/22-rdf-syntax-ns#">
      <rdf:Description rdf:about=""/>
   </rdf:RDF>
</x:xmpmeta>
                                                                                                    
                                                                                                    
                                                                                                    
                                                                                                    
                                                                                                    
                                                                                                    
                                                                                                    
                                                                                                    
                                                                                                    
                                                                                                    
                                                                                                    
                                                                                                    
                                                                                                    
                                                                                                    
                                                                                                    
                                                                                                    
                                                                                                    
                                                                                                    
                                                                                                    
                                                                                                    
                           
<?xpacket end="w"?></metadata>
<defs>
    <style>
      .cls-1 {
        filter: url(#filter);
      }

      .cls-2 {
        fill: #0079ff;
        fill-rule: evenodd;
      }
    </style>
    <filter id="filter" filterUnits="userSpaceOnUse">
      <feFlood result="flood" flood-color="#7be352"/>
      <feComposite result="composite" operator="in" in2="SourceGraphic"/>
      <feBlend result="blend" in2="SourceGraphic"/>
    </filter>
  </defs>
  <g id="clock" class="cls-1">
    <path id="Composite_Path" data-name="Composite Path" class="cls-2" d="M508.5,1795.5A23.5,23.5,0,1,1,532,1772,23.525,23.525,0,0,1,508.5,1795.5Zm0-45A21.5,21.5,0,1,0,530,1772,21.521,21.521,0,0,0,508.5,1750.5Z" transform="translate(-485 -1748.5)"/>
    <path id="Path" class="cls-2" d="M508.279,1754.46l-0.54.14a1.259,1.259,0,0,1-.27.04,0.67,0.67,0,0,1-.16-1.32l0.99-.29a2.754,2.754,0,0,1,.719-0.13h0.02a0.76,0.76,0,0,1,.76.76v5.64a0.76,0.76,0,1,1-1.519,0v-4.84Z" transform="translate(-485 -1748.5)"/>
    <path id="Path-2" data-name="Path" class="cls-2" d="M522.289,1775.32a0.732,0.732,0,0,1,.48-1.29,0.731,0.731,0,0,1,.49.19,2,2,0,0,0,1.369.52,0.878,0.878,0,0,0,.99-0.85v-0.02c0-.57-0.51-0.89-1.37-0.89h-0.239a0.666,0.666,0,0,1-.66-0.66,0.869,0.869,0,0,1,.33-0.63l1.359-1.37h-2.149a0.66,0.66,0,0,1,0-1.32H526.3a0.7,0.7,0,0,1,.78.68,1.117,1.117,0,0,1-.46.86l-1.369,1.31a1.941,1.941,0,0,1,1.879,1.96v0.02a2.283,2.283,0,0,1-2.519,2.29A3.421,3.421,0,0,1,522.289,1775.32Z" transform="translate(-485 -1748.5)"/>
    <path id="Composite_Path-2" data-name="Composite Path" class="cls-2" d="M489.669,1774.62a0.73,0.73,0,0,1-.359-0.63,0.708,0.708,0,0,1,.729-0.7,0.782,0.782,0,0,1,.4.12,2.053,2.053,0,0,0,1.119.31,1.489,1.489,0,0,0,1.419-1.59,2.124,2.124,0,0,1-1.419.48,2.213,2.213,0,0,1-2.5-2.26v-0.02a2.469,2.469,0,0,1,2.669-2.45,2.533,2.533,0,0,1,2.019.76,3.474,3.474,0,0,1,.83,2.64v0.02c0,2.27-1.07,3.82-3.059,3.82A3.305,3.305,0,0,1,489.669,1774.62Zm3.338-4.33v-0.02a1.088,1.088,0,0,0-1.229-1.07,1.052,1.052,0,0,0-1.189,1.06v0.02a1.071,1.071,0,0,0,1.219,1.05A1.057,1.057,0,0,0,493.007,1770.29Z" transform="translate(-485 -1748.5)"/>
    <path id="Composite_Path-3" data-name="Composite Path" class="cls-2" d="M506.869,1790.37a3.461,3.461,0,0,1-.83-2.65v-0.02c0-2.16.98-3.82,3.069-3.82a3.287,3.287,0,0,1,1.689.42,0.732,0.732,0,0,1,.4.66,0.717,0.717,0,0,1-.73.71,0.837,0.837,0,0,1-.38-0.11,1.931,1.931,0,0,0-1.029-.28,1.514,1.514,0,0,0-1.409,1.62,2.415,2.415,0,0,1,1.449-.45,2.2,2.2,0,0,1,2.459,2.23v0.02a2.469,2.469,0,0,1-2.669,2.42A2.653,2.653,0,0,1,506.869,1790.37Zm3.158-1.6v-0.02a1.066,1.066,0,0,0-1.219-1.02,1.042,1.042,0,0,0-1.2,1.01v0.02a1.08,1.08,0,0,0,1.219,1.04A1.05,1.05,0,0,0,510.027,1788.77Z" transform="translate(-485 -1748.5)"/>
    <path id="Path-3" data-name="Path" class="cls-2" d="M521.207,1759.29a1,1,0,0,0-1.414,0l-10.008,10.01a2.9,2.9,0,0,0-2.57,0l-7.008-7.01a1,1,0,0,0-1.414,1.42l7.008,7a3,3,0,1,0,5.4,0l10.008-10A1.006,1.006,0,0,0,521.207,1759.29Z" transform="translate(-485 -1748.5)"/>
  </g>
</svg>
