<svg xmlns="http://www.w3.org/2000/svg" xmlns:xlink="http://www.w3.org/1999/xlink" width="44" height="44" viewBox="0 0 44 44">
  <metadata><?xpacket begin="﻿" id="W5M0MpCehiHzreSzNTczkc9d"?>
<x:xmpmeta xmlns:x="adobe:ns:meta/" x:xmptk="Adobe XMP Core 5.6-c138 79.159824, 2016/09/14-01:09:01        ">
   <rdf:RDF xmlns:rdf="http://www.w3.org/1999/02/22-rdf-syntax-ns#">
      <rdf:Description rdf:about=""/>
   </rdf:RDF>
</x:xmpmeta>
                                                                                                    
                                                                                                    
                                                                                                    
                                                                                                    
                                                                                                    
                                                                                                    
                                                                                                    
                                                                                                    
                                                                                                    
                                                                                                    
                                                                                                    
                                                                                                    
                                                                                                    
                                                                                                    
                                                                                                    
                                                                                                    
                                                                                                    
                                                                                                    
                                                                                                    
                                                                                                    
                           
<?xpacket end="w"?></metadata>
<defs>
    <style>
      .cls-1 {
        filter: url(#filter);
      }

      .cls-2 {
        fill: #0079ff;
        fill-rule: evenodd;
      }
    </style>
    <filter id="filter" filterUnits="userSpaceOnUse">
      <feFlood result="flood" flood-color="#7be352"/>
      <feComposite result="composite" operator="in" in2="SourceGraphic"/>
      <feBlend result="blend" in2="SourceGraphic"/>
    </filter>
  </defs>
  <g id="Группа_39" data-name="Группа 39" class="cls-1">
    <path id="Path" class="cls-2" d="M518,1683l-8.255-.04a1,1,0,0,1-.659-1.73l2.606-2.46c2.511-2.42,4.293-4.3,4.293-6.37a2.641,2.641,0,0,0-2.929-2.85,4.3,4.3,0,0,0-2.9,1.11,1,1,0,1,1-1.287-1.53,6.3,6.3,0,0,1,4.191-1.58,4.63,4.63,0,0,1,4.929,4.85c0,2.86-2.036,5.04-4.912,7.82l-0.829.78H518A1,1,0,0,1,518,1683Z" transform="translate(-487 -1653)"/>
    <path id="Path-2" data-name="Path" class="cls-2" d="M504,1683a1,1,0,0,1-1-1v-11.24l-0.758.51a1,1,0,0,1-1.109-1.66l2.312-1.55a1,1,0,0,1,1.555.84V1682A1,1,0,0,1,504,1683Z" transform="translate(-487 -1653)"/>
    <path id="Composite_Path" data-name="Composite Path" class="cls-2" d="M521,1697H491a4,4,0,0,1-4-4v-36a4,4,0,0,1,4-4h6a1,1,0,0,1,1,1v1.35a1.007,1.007,0,0,1-.57.9,2.493,2.493,0,0,0-.7,4.02,2.537,2.537,0,0,0,2.373.66,2.5,2.5,0,0,0,.464-4.68,1.008,1.008,0,0,1-.569-0.9V1654a1,1,0,0,1,1-1h8a1,1,0,0,1,1,1v1.35a1.008,1.008,0,0,1-.569.9A2.473,2.473,0,0,0,507,1658.5a2.5,2.5,0,0,0,.732,1.77,2.537,2.537,0,0,0,2.373.66,2.5,2.5,0,0,0,.464-4.68,1.008,1.008,0,0,1-.569-0.9V1654a1,1,0,0,1,1-1h8a1,1,0,0,1,1,1v1.35a1.008,1.008,0,0,1-.569.9A2.473,2.473,0,0,0,518,1658.5a2.5,2.5,0,0,0,.732,1.77,2.537,2.537,0,0,0,2.373.66,2.5,2.5,0,0,0,.464-4.68,1.008,1.008,0,0,1-.569-0.9V1654a1,1,0,0,1,1-1h5a4,4,0,0,1,4,4v30a1.023,1.023,0,0,1-.293.71l-9,9A1.029,1.029,0,0,1,521,1697Zm-30-42a2,2,0,0,0-2,2v36a2,2,0,0,0,2,2h29.586l8.414-8.41V1657a2,2,0,0,0-2-2h-3.687a4.508,4.508,0,0,1,1.571,4.53,4.454,4.454,0,0,1-3.331,3.35,4.54,4.54,0,0,1-4.235-1.2,4.487,4.487,0,0,1,.366-6.68h-5.371a4.508,4.508,0,0,1,1.571,4.53,4.454,4.454,0,0,1-3.331,3.35,4.54,4.54,0,0,1-4.235-1.2,4.487,4.487,0,0,1,.366-6.68h-5.371a4.508,4.508,0,0,1,1.571,4.53,4.454,4.454,0,0,1-3.331,3.35,4.54,4.54,0,0,1-4.235-1.2,4.487,4.487,0,0,1,.366-6.68H491Z" transform="translate(-487 -1653)"/>
    <path id="Path-3" data-name="Path" class="cls-2" d="M521,1697a1,1,0,0,1-1-1v-6a4,4,0,0,1,4-4h5a1,1,0,0,1,0,2h-5a2,2,0,0,0-2,2v6A1,1,0,0,1,521,1697Z" transform="translate(-487 -1653)"/>
  </g>
</svg>
