<svg xmlns="http://www.w3.org/2000/svg" width="44" height="44"><defs><style>.cls-1 { filter: url(#filter); } .cls-2 { fill: #0079ff; fill-rule: evenodd; }</style><filter id="filter" filterUnits="userSpaceOnUse"><feFlood result="flood" flood-color="#7be352"/><feComposite result="composite" operator="in" in2="SourceGraphic"/><feBlend result="blend" in2="SourceGraphic"/></filter></defs><g id="Группа_39" data-name="Группа 39" class="cls-1"><path id="Path" class="cls-2" d="M31 30l-8.26-.04a1 1 0 0 1-.65-1.73l2.6-2.46c2.5-2.42 4.3-4.3 4.3-6.37a2.64 2.64 0 0 0-3-2.85 4.3 4.3 0 0 0-2.9 1.1 1 1 0 1 1-1.3-1.52 6.3 6.3 0 0 1 4.2-1.58 4.63 4.63 0 0 1 5 4.85c0 2.86-2.06 5.04-4.93 7.82l-.83.78H31a1 1 0 0 1 0 2z"/><path id="Path-2" data-name="Path" class="cls-2" d="M17 30a1 1 0 0 1-1-1V17.76l-.76.5a1 1 0 0 1-1.1-1.65l2.3-1.5a1 1 0 0 1 1.56.86V29a1 1 0 0 1-1 1z"/><path id="Composite_Path" data-name="Composite Path" class="cls-2" d="M34 44H4a4 4 0 0 1-4-4V4a4 4 0 0 1 4-4h6a1 1 0 0 1 1 1v1.35a1 1 0 0 1-.57.9 2.5 2.5 0 0 0-.7 4.02 2.54 2.54 0 0 0 2.37.66 2.5 2.5 0 0 0 .47-4.68 1 1 0 0 1-.57-.9V1a1 1 0 0 1 1-1h8a1 1 0 0 1 1 1v1.35a1 1 0 0 1-.57.9A2.47 2.47 0 0 0 20 5.5a2.5 2.5 0 0 0 .73 1.77 2.54 2.54 0 0 0 2.38.66 2.5 2.5 0 0 0 .5-4.68 1 1 0 0 1-.54-.9V1a1 1 0 0 1 1-1h8a1 1 0 0 1 1 1v1.35a1 1 0 0 1-.56.9A2.47 2.47 0 0 0 31 5.5a2.5 2.5 0 0 0 .73 1.77 2.54 2.54 0 0 0 2.37.66 2.5 2.5 0 0 0 .47-4.68 1 1 0 0 1-.57-.9V1a1 1 0 0 1 1-1h5a4 4 0 0 1 4 4v30a1.02 1.02 0 0 1-.3.7l-9 9a1.03 1.03 0 0 1-.7.3zM4 2a2 2 0 0 0-2 2v36a2 2 0 0 0 2 2h29.6l8.4-8.4V4a2 2 0 0 0-2-2h-3.7a4.5 4.5 0 0 1 1.58 4.53 4.45 4.45 0 0 1-3.33 3.35 4.54 4.54 0 0 1-4.23-1.2A4.5 4.5 0 0 1 30.68 2H25.3a4.5 4.5 0 0 1 1.58 4.53 4.45 4.45 0 0 1-3.33 3.35 4.54 4.54 0 0 1-4.23-1.2A4.5 4.5 0 0 1 19.68 2H14.3a4.5 4.5 0 0 1 1.58 4.53 4.45 4.45 0 0 1-3.33 3.35 4.54 4.54 0 0 1-4.23-1.2A4.5 4.5 0 0 1 8.68 2H4z"/><path id="Path-3" data-name="Path" class="cls-2" d="M34 44a1 1 0 0 1-1-1v-6a4 4 0 0 1 4-4h5a1 1 0 0 1 0 2h-5a2 2 0 0 0-2 2v6a1 1 0 0 1-1 1z"/></g></svg>