<svg xmlns="http://www.w3.org/2000/svg" xmlns:xlink="http://www.w3.org/1999/xlink" width="46" height="45" viewBox="0 0 46 45">
  <metadata><?xpacket begin="﻿" id="W5M0MpCehiHzreSzNTczkc9d"?>
<x:xmpmeta xmlns:x="adobe:ns:meta/" x:xmptk="Adobe XMP Core 5.6-c138 79.159824, 2016/09/14-01:09:01        ">
   <rdf:RDF xmlns:rdf="http://www.w3.org/1999/02/22-rdf-syntax-ns#">
      <rdf:Description rdf:about=""/>
   </rdf:RDF>
</x:xmpmeta>
                                                                                                    
                                                                                                    
                                                                                                    
                                                                                                    
                                                                                                    
                                                                                                    
                                                                                                    
                                                                                                    
                                                                                                    
                                                                                                    
                                                                                                    
                                                                                                    
                                                                                                    
                                                                                                    
                                                                                                    
                                                                                                    
                                                                                                    
                                                                                                    
                                                                                                    
                                                                                                    
                           
<?xpacket end="w"?></metadata>
<defs>
    <style>
      .cls-1 {
        filter: url(#filter);
      }

      .cls-2 {
        fill: #007fff;
        fill-rule: evenodd;
      }
    </style>
    <filter id="filter" filterUnits="userSpaceOnUse">
      <feFlood result="flood" flood-color="#7be352"/>
      <feComposite result="composite" operator="in" in2="SourceGraphic"/>
      <feBlend result="blend" in2="SourceGraphic"/>
    </filter>
  </defs>
  <g id="food-close" class="cls-1">
    <path id="Path" class="cls-2" d="M1029,6080.24a1,1,0,0,1-1-1,17,17,0,0,0-34,0,1,1,0,0,1-2,0,19,19,0,0,1,38,0A1,1,0,0,1,1029,6080.24Z" transform="translate(-988 -6043)"/>
    <path id="Path-2" data-name="Path" class="cls-2" d="M1029.76,6083.99H992.236a4.6,4.6,0,0,1-4.131-2.55,1,1,0,0,1,1.789-.9,2.6,2.6,0,0,0,2.342,1.45h37.524a2.608,2.608,0,0,0,2.35-1.45,1,1,0,0,1,1.78.9A4.59,4.59,0,0,1,1029.76,6083.99Z" transform="translate(-988 -6043)"/>
    <path id="Path-3" data-name="Path" class="cls-2" d="M1014.5,6061.74a1,1,0,0,1-1-1,2.5,2.5,0,0,0-5,0,1,1,0,0,1-2,0,4.5,4.5,0,0,1,9,0A1,1,0,0,1,1014.5,6061.74Z" transform="translate(-988 -6043)"/>
    <path id="Path-4" data-name="Path" class="cls-2" d="M1010.57,6055.2a1,1,0,0,1-1-1,3.074,3.074,0,0,1,1.92-2.56c0.69-.41.94-0.6,0.94-0.84s-0.25-.43-0.94-0.84a2.667,2.667,0,0,1,0-5.12c0.69-.42.94-0.61,0.94-0.85a1,1,0,0,1,2,0,3.061,3.061,0,0,1-1.92,2.56c-0.69.42-.94,0.61-0.94,0.85s0.25,0.42.94,0.84a2.667,2.667,0,0,1,0,5.12c-0.69.41-.94,0.6-0.94,0.84A1,1,0,0,1,1010.57,6055.2Z" transform="translate(-988 -6043)"/>
    <path id="Path-5" data-name="Path" class="cls-2" d="M1001.57,6057.99a1,1,0,0,1-1-1,3.406,3.406,0,0,1,1.85-2.83c0.73-.51,1.01-0.75,1.01-1.19s-0.28-.69-1.01-1.2a3.09,3.09,0,0,1,0-5.66c0.73-.51,1.01-0.75,1.01-1.19a1,1,0,0,1,2,0,3.421,3.421,0,0,1-1.85,2.83c-0.73.51-1.01,0.75-1.01,1.19s0.28,0.68,1.01,1.2a3.09,3.09,0,0,1,0,5.66c-0.73.51-1.01,0.74-1.01,1.19A1,1,0,0,1,1001.57,6057.99Z" transform="translate(-988 -6043)"/>
    <path id="Path-6" data-name="Path" class="cls-2" d="M1019.57,6057.99a1,1,0,0,1-1-1,3.406,3.406,0,0,1,1.85-2.83c0.73-.51,1.01-0.75,1.01-1.19s-0.28-.69-1.01-1.2a3.09,3.09,0,0,1,0-5.66c0.73-.51,1.01-0.75,1.01-1.19a1,1,0,0,1,2,0,3.421,3.421,0,0,1-1.85,2.83c-0.73.51-1.01,0.75-1.01,1.19s0.28,0.68,1.01,1.2a3.09,3.09,0,0,1,0,5.66c-0.73.51-1.01,0.74-1.01,1.19A1,1,0,0,1,1019.57,6057.99Z" transform="translate(-988 -6043)"/>
    <path id="Path-7" data-name="Path" class="cls-2" d="M1019,6087.99h-16a5,5,0,0,1-5-5,1,1,0,0,1,2,0,3,3,0,0,0,3,3h16a3,3,0,0,0,3-3,1,1,0,0,1,2,0A5,5,0,0,1,1019,6087.99Z" transform="translate(-988 -6043)"/>
  </g>
</svg>
