<svg xmlns="http://www.w3.org/2000/svg" width="46" height="45"><defs><style>.cls-1 { filter: url(#filter); } .cls-2 { fill: #007fff; fill-rule: evenodd; }</style><filter id="filter" filterUnits="userSpaceOnUse"><feFlood result="flood" flood-color="#7be352"/><feComposite result="composite" operator="in" in2="SourceGraphic"/><feBlend result="blend" in2="SourceGraphic"/></filter></defs><g id="food-close" class="cls-1"><path id="Path" class="cls-2" d="M41 37.24a1 1 0 0 1-1-1 17 17 0 0 0-34 0 1 1 0 0 1-2 0 19 19 0 0 1 38 0 1 1 0 0 1-1 1z"/><path id="Path-2" data-name="Path" class="cls-2" d="M41.76 41H4.24A4.6 4.6 0 0 1 .1 38.43a1 1 0 0 1 1.8-.9A2.6 2.6 0 0 0 4.23 39h37.52a2.6 2.6 0 0 0 2.35-1.46 1 1 0 0 1 1.8.9A4.6 4.6 0 0 1 41.75 41z"/><path id="Path-3" data-name="Path" class="cls-2" d="M26.5 18.74a1 1 0 0 1-1-1 2.5 2.5 0 0 0-5 0 1 1 0 0 1-2 0 4.5 4.5 0 0 1 9 0 1 1 0 0 1-1 1z"/><path id="Path-4" data-name="Path" class="cls-2" d="M22.57 12.2a1 1 0 0 1-1-1 3.07 3.07 0 0 1 1.92-2.56c.68-.4.93-.6.93-.84s-.25-.43-.94-.84a2.67 2.67 0 0 1 0-5.12c.68-.42.93-.6.93-.85a1 1 0 0 1 2 0 3.06 3.06 0 0 1-1.92 2.55c-.68.42-.93.6-.93.85s.25.42.94.84a2.67 2.67 0 0 1 0 5.12c-.68.4-.93.6-.93.84a1 1 0 0 1-1 1z"/><path id="Path-5" data-name="Path" class="cls-2" d="M13.57 15a1 1 0 0 1-1-1 3.4 3.4 0 0 1 1.85-2.84c.73-.5 1-.75 1-1.2s-.27-.68-1-1.2a3.1 3.1 0 0 1 0-5.65c.73-.5 1-.74 1-1.18a1 1 0 0 1 2 0 3.42 3.42 0 0 1-1.84 2.83c-.73.5-1 .75-1 1.2s.27.67 1 1.2a3.1 3.1 0 0 1 0 5.65c-.73.5-1 .74-1 1.2a1 1 0 0 1-1 1z"/><path id="Path-6" data-name="Path" class="cls-2" d="M31.57 15a1 1 0 0 1-1-1 3.4 3.4 0 0 1 1.85-2.84c.73-.5 1-.75 1-1.2s-.27-.68-1-1.2a3.1 3.1 0 0 1 0-5.65c.73-.5 1-.74 1-1.18a1 1 0 0 1 2 0 3.42 3.42 0 0 1-1.84 2.83c-.73.5-1 .75-1 1.2s.27.67 1 1.2a3.1 3.1 0 0 1 0 5.65c-.73.5-1 .74-1 1.2a1 1 0 0 1-1 1z"/><path id="Path-7" data-name="Path" class="cls-2" d="M31 45H15a5 5 0 0 1-5-5 1 1 0 0 1 2 0 3 3 0 0 0 3 3h16a3 3 0 0 0 3-3 1 1 0 0 1 2 0 5 5 0 0 1-5 5z"/></g></svg>