<svg xmlns="http://www.w3.org/2000/svg" viewBox="0 0 46 44"><defs><style>.cls-1 { filter: url(#filter); } .cls-2 { fill: #0e81ff; fill-rule: evenodd; }</style><filter id="filter" filterUnits="userSpaceOnUse"><feFlood result="flood" flood-color="#7be352"/><feComposite result="composite" operator="in" in2="SourceGraphic"/><feBlend result="blend" in2="SourceGraphic"/></filter></defs><g id="green-building" class="cls-1"><path id="Path" class="cls-2" d="M40 44a1 1 0 0 1-1-1V8.64a1 1 0 0 0-1-1h-9.1a7.25 7.25 0 0 0-6.98 5.25C18.02 26.04 5.62 42.66 5.1 43.36a1 1 0 0 1-1.4.2 1.02 1.02 0 0 1-.2-1.42c.13-.16 12.7-17.03 16.5-29.82a9.24 9.24 0 0 1 8.9-6.7H38a3.02 3.02 0 0 1 3 3.03V43a1 1 0 0 1-1 1z"/><path id="Path-2" data-name="Path" class="cls-2" d="M45 44H1a1 1 0 0 1 0-2.02h44A1 1 0 0 1 45 44z"/><path id="Path-3" data-name="Path" class="cls-2" d="M20.73 15.65a1 1 0 0 1-.53-1.86l3.1-1.98a13.93 13.93 0 0 1 7.44-2.16H40a1 1 0 0 1 0 2.02h-9.26a11.92 11.92 0 0 0-6.38 1.85l-3.1 1.97a1.02 1.02 0 0 1-.53.15z"/><path id="Path-4" data-name="Path" class="cls-2" d="M18.4 20.36a1 1 0 0 1-.86-.48 1.02 1.02 0 0 1 .34-1.4l4.5-2.74a13.95 13.95 0 0 1 7.25-2.04H40a1 1 0 0 1 0 2.02H29.63a11.87 11.87 0 0 0-6.22 1.75l-4.5 2.75a.97.97 0 0 1-.5.14z"/><path id="Path-5" data-name="Path" class="cls-2" d="M16.47 24.8a1 1 0 0 1-.9-.53A1.02 1.02 0 0 1 16 22.9l6.7-3.54a13.93 13.93 0 0 1 6.5-1.62H40a1 1 0 0 1 0 2.02H29.2a11.93 11.93 0 0 0-5.57 1.4l-6.7 3.53a.97.97 0 0 1-.46.1z"/><path id="Path-6" data-name="Path" class="cls-2" d="M14 28.85a1 1 0 0 1-.9-.6 1 1 0 0 1 .5-1.33l8.2-3.77a14.94 14.94 0 0 1 6.27-1.37H40a1 1 0 0 1 0 2.02H28.07a12.96 12.96 0 0 0-5.45 1.2l-8.2 3.76a1 1 0 0 1-.42.1z"/><path id="Path-7" data-name="Path" class="cls-2" d="M11.8 32.82a1 1 0 0 1-.35-1.95l11-4.16a13.9 13.9 0 0 1 4.9-.88H40a1 1 0 0 1 0 2.02H27.35a11.83 11.83 0 0 0-4.2.77l-11 4.16a1.07 1.07 0 0 1-.35.06z"/><path id="Path-8" data-name="Path" class="cls-2" d="M9.67 36.4a1 1 0 0 1-.96-.74 1 1 0 0 1 .7-1.25l13.54-3.98a14.04 14.04 0 0 1 3.9-.56h13.16a1 1 0 0 1 0 2.02H26.85a11.93 11.93 0 0 0-3.35.48l-13.55 4a.9.9 0 0 1-.28.03z"/><path id="Path-9" data-name="Path" class="cls-2" d="M7.2 39.9a1 1 0 0 1-.97-.8 1 1 0 0 1 .74-1.2l15.34-3.63a13.73 13.73 0 0 1 3.2-.37H40a1 1 0 0 1 0 2.02H25.5a12 12 0 0 0-2.74.32L7.43 39.87a1.78 1.78 0 0 1-.23.02z"/><path id="Path-10" data-name="Path" class="cls-2" d="M5.67 43a1 1 0 0 1-.17-2.02l16.23-2.83a13.63 13.63 0 0 1 2.4-.2H40a1 1 0 0 1 0 2H24.12a11.67 11.67 0 0 0-2.05.2L5.84 42.96a1.02 1.02 0 0 1-.18.02z"/><path id="Composite_Path" data-name="Composite Path" class="cls-2" d="M6 28.74c-3.3 0-6-3.6-6-8.03s2.7-8 6-8 6 3.6 6 8-2.7 8.04-6 8.04zM6 14.7c-2.17 0-4 2.76-4 6s1.83 6.02 4 6.02 4-2.75 4-6-1.83-6-4-6z"/><path id="Path-11" data-name="Path" class="cls-2" d="M10.92 26.72a4.03 4.03 0 0 1-2.03-.57l1-1.75a1.94 1.94 0 0 0 1.02.3c1.58 0 2.92-2.06 2.92-4.5s-1.34-4.48-2.92-4.48a2.06 2.06 0 0 0-1.12.35l-1.1-1.7a4.08 4.08 0 0 1 2.22-.67c2.7 0 4.92 2.92 4.92 6.5s-2.2 6.52-4.92 6.52z"/><path id="Path-12" data-name="Path" class="cls-2" d="M6 40.97a1 1 0 0 1-1-1V27.83a1 1 0 1 1 2 0v12.12a1 1 0 0 1-1 1z"/><path id="Path-13" data-name="Path" class="cls-2" d="M12 32.9h-2V25.8h2v7.07z"/><path id="Path-14" data-name="Path" class="cls-2" d="M38 7.64a1 1 0 0 1-1-1v-4.3a33.1 33.1 0 0 1-5 .28 10.03 10.03 0 0 0-3.48.68A2.4 2.4 0 0 0 27 5.55v1.08a1 1 0 1 1-2 0V5.55a4.4 4.4 0 0 1 2.83-4.14A11.85 11.85 0 0 1 32 .6a27.72 27.72 0 0 0 5.37-.38A1 1 0 0 1 38 0a1 1 0 0 1 1 1v5.63a1 1 0 0 1-1 1z"/></g></svg>