<svg xmlns="http://www.w3.org/2000/svg" xmlns:xlink="http://www.w3.org/1999/xlink" width="45.407" height="40.91" viewBox="0 0 45.407 40.91">
  <metadata><?xpacket begin="﻿" id="W5M0MpCehiHzreSzNTczkc9d"?>
<x:xmpmeta xmlns:x="adobe:ns:meta/" x:xmptk="Adobe XMP Core 5.6-c138 79.159824, 2016/09/14-01:09:01        ">
   <rdf:RDF xmlns:rdf="http://www.w3.org/1999/02/22-rdf-syntax-ns#">
      <rdf:Description rdf:about=""/>
   </rdf:RDF>
</x:xmpmeta>
                                                                                                    
                                                                                                    
                                                                                                    
                                                                                                    
                                                                                                    
                                                                                                    
                                                                                                    
                                                                                                    
                                                                                                    
                                                                                                    
                                                                                                    
                                                                                                    
                                                                                                    
                                                                                                    
                                                                                                    
                                                                                                    
                                                                                                    
                                                                                                    
                                                                                                    
                                                                                                    
                           
<?xpacket end="w"?></metadata>
<defs>
    <style>
      .cls-1 {
        filter: url(#filter);
      }

      .cls-2 {
        fill: #0079ff;
        fill-rule: evenodd;
      }
    </style>
    <filter id="filter" filterUnits="userSpaceOnUse">
      <feFlood result="flood" flood-color="#7be352"/>
      <feComposite result="composite" operator="in" in2="SourceGraphic"/>
      <feBlend result="blend" in2="SourceGraphic"/>
    </filter>
  </defs>
  <g id="grupp_human" class="cls-1">
    <path id="Composite_Path" data-name="Composite Path" class="cls-2" d="M508.666,2000.46c-4.485,0-7.161-5.42-7.7-6.96a2.175,2.175,0,0,1-.738-0.77,4.568,4.568,0,0,1-.606-3.7,2.713,2.713,0,0,1,.77-1.13,14.436,14.436,0,0,1,.422-3.52c0.494-1.84,2.769-5.29,7.855-5.29s7.363,3.45,7.855,5.28a14.539,14.539,0,0,1,.424,3.49,2.535,2.535,0,0,1,.71.95c0.434,1.02.245,2.33-.562,3.91a1.983,1.983,0,0,1-.739.81C515.759,1995.18,513.1,2000.46,508.666,2000.46Zm-6.89-11.12a0.724,0.724,0,0,0-.285.4,2.928,2.928,0,0,0,.492,2.03,1.864,1.864,0,0,1,.8.86,0.948,0.948,0,0,1,.037.11c0.349,1.21,2.7,5.72,5.847,5.72s5.5-4.51,5.848-5.72a1.381,1.381,0,0,1,.686-0.84,0.329,0.329,0,0,0,.113-0.09c0.691-1.35.59-1.98,0.515-2.18a0.465,0.465,0,0,0-.223-0.27,0.945,0.945,0,0,1-.669-1,13,13,0,0,0-.347-3.47c-0.041-.15-1.133-3.8-5.923-3.8s-5.881,3.65-5.925,3.81a12.99,12.99,0,0,0-.344,3.46,1,1,0,0,1-.622.98h0Z" transform="translate(-486.156 -1974.09)"/>
    <path id="Path" class="cls-2" d="M521.976,2015H496.222a2.831,2.831,0,0,1-2.061-.93,3.459,3.459,0,0,1-.934-2.52c0.247-4.21,1.3-9.34,7.26-11.59a12.5,12.5,0,0,0,3.854-2.23,1,1,0,0,1,1.39,1.44,14.076,14.076,0,0,1-4.537,2.66c-3.866,1.46-5.652,4.4-5.971,9.83a1.478,1.478,0,0,0,.393,1.04,0.9,0.9,0,0,0,.606.3h25.754a0.9,0.9,0,0,0,.623-0.32,1.316,1.316,0,0,0,.378-0.96c-0.334-5.49-2.175-8.58-5.97-10.02a16.241,16.241,0,0,1-4.6-2.56,1,1,0,1,1,1.309-1.51,14.722,14.722,0,0,0,3.994,2.2c6,2.27,7.018,7.8,7.26,11.76a3.386,3.386,0,0,1-.918,2.47A2.886,2.886,0,0,1,521.976,2015Z" transform="translate(-486.156 -1974.09)"/>
    <path id="Path-2" data-name="Path" class="cls-2" d="M495,2008h-5.858a3.228,3.228,0,0,1-3-3.21c-0.049-3.28-.116-7.77,5.346-9.83a28.144,28.144,0,0,0,3.764-1.81,15.5,15.5,0,0,1-3.287-4.63,2.072,2.072,0,0,1-.739-0.78,4.549,4.549,0,0,1-.607-3.69,2.681,2.681,0,0,1,.771-1.14,14.507,14.507,0,0,1,.422-3.53c0.494-1.83,2.769-5.29,7.855-5.29a7.846,7.846,0,0,1,7.859,5.55,1,1,0,0,1-1.938.49,5.832,5.832,0,0,0-5.921-4.04c-4.789,0-5.88,3.66-5.925,3.81a13.028,13.028,0,0,0-.344,3.47,1,1,0,0,1-.618.98h0a0.725,0.725,0,0,0-.288.4,2.952,2.952,0,0,0,.492,2.04,0.247,0.247,0,0,0,.091.06,1.785,1.785,0,0,1,.708.81,0.948,0.948,0,0,1,.037.11,12.341,12.341,0,0,0,3.7,4.63,1,1,0,0,1,.031,1.68,29.97,29.97,0,0,1-5.36,2.75c-3.86,1.46-4.111,4.09-4.053,7.93a1.274,1.274,0,0,0,1,1.24H495A1,1,0,0,1,495,2008Z" transform="translate(-486.156 -1974.09)"/>
    <path id="Path-3" data-name="Path" class="cls-2" d="M528.548,2008H523a1,1,0,0,1,0-2h5.548a1.274,1.274,0,0,0,1-1.24c0.057-3.84-.194-6.47-4.054-7.93a27.137,27.137,0,0,1-5.39-2.89,1.006,1.006,0,0,1,.169-1.73c1.7-.77,3.4-3.75,3.6-4.44a0.948,0.948,0,0,1,.037-0.11,1.779,1.779,0,0,1,.708-0.81,0.233,0.233,0,0,0,.089-0.06,2.945,2.945,0,0,0,.494-2.04,0.684,0.684,0,0,0-.319-0.41,1.068,1.068,0,0,1-.588-0.97,13.02,13.02,0,0,0-.346-3.48c-0.042-.14-1.133-3.8-5.923-3.8a5.565,5.565,0,0,0-5.76,4.02,1,1,0,0,1-1.951-.44,7.574,7.574,0,0,1,7.711-5.58c5.086,0,7.362,3.46,7.855,5.29a14.467,14.467,0,0,1,.423,3.53,2.681,2.681,0,0,1,.771,1.14,4.557,4.557,0,0,1-.607,3.69,2.073,2.073,0,0,1-.738.78,13.241,13.241,0,0,1-3.226,4.59,23.372,23.372,0,0,0,3.7,1.85c5.462,2.06,5.395,6.55,5.346,9.83A3.23,3.23,0,0,1,528.548,2008Z" transform="translate(-486.156 -1974.09)"/>
  </g>
</svg>
