<svg xmlns="http://www.w3.org/2000/svg" viewBox="0 0 45.41 40.91"><defs><style>.cls-1 { filter: url(#filter); } .cls-2 { fill: #0079ff; fill-rule: evenodd; }</style><filter id="filter" filterUnits="userSpaceOnUse"><feFlood result="flood" flood-color="#7be352"/><feComposite result="composite" operator="in" in2="SourceGraphic"/><feBlend result="blend" in2="SourceGraphic"/></filter></defs><g id="grupp_human" class="cls-1"><path id="Composite_Path" data-name="Composite Path" class="cls-2" d="M22.5 26.37c-4.48 0-7.15-5.42-7.7-6.96a2.17 2.17 0 0 1-.73-.7 4.57 4.57 0 0 1-.6-3.7 2.7 2.7 0 0 1 .77-1.1 14.44 14.44 0 0 1 .42-3.5c.5-1.85 2.77-5.3 7.85-5.3s7.4 3.45 7.9 5.28a14.54 14.54 0 0 1 .4 3.5 2.54 2.54 0 0 1 .7.95c.5 1 .3 2.33-.5 3.9a1.98 1.98 0 0 1-.72.8c-.6 1.66-3.25 6.94-7.7 6.94zm-6.88-11.12a.72.72 0 0 0-.3.4 2.93 2.93 0 0 0 .5 2.03 1.86 1.86 0 0 1 .8.86.95.95 0 0 1 .04.1c.35 1.22 2.7 5.73 5.85 5.73s5.5-4.5 5.9-5.72a1.38 1.38 0 0 1 .7-.84.33.33 0 0 0 .1 0c.7-1.34.6-2 .5-2.2a.47.47 0 0 0-.2-.25.94.94 0 0 1-.7-1 13 13 0 0 0-.3-3.47c-.1-.2-1.2-3.87-6-3.87s-5.86 3.66-5.9 3.8a13 13 0 0 0-.35 3.48 1 1 0 0 1-.62.98z"/><path id="Path" class="cls-2" d="M35.82 40.9H10.07A2.83 2.83 0 0 1 8 40a3.46 3.46 0 0 1-.93-2.52c.25-4.2 1.3-9.34 7.26-11.6a12.5 12.5 0 0 0 3.85-2.22 1 1 0 0 1 1.4 1.44 14.08 14.08 0 0 1-4.54 2.66c-3.87 1.46-5.65 4.4-5.97 9.83a1.48 1.48 0 0 0 .4 1 .9.9 0 0 0 .6.3h25.75a.9.9 0 0 0 .62-.3 1.32 1.32 0 0 0 .38-1c-.33-5.5-2.17-8.6-5.97-10a16.24 16.24 0 0 1-4.6-2.58 1 1 0 1 1 1.3-1.5 14.72 14.72 0 0 0 4 2.2c6 2.25 7.02 7.8 7.26 11.74a3.4 3.4 0 0 1-.9 2.47 2.9 2.9 0 0 1-2 .94z"/><path id="Path-2" data-name="Path" class="cls-2" d="M8.84 33.9H3a3.23 3.23 0 0 1-3-3.2c-.06-3.28-.13-7.77 5.33-9.83a28.14 28.14 0 0 0 3.77-1.8 15.5 15.5 0 0 1-3.3-4.64 2.07 2.07 0 0 1-.73-.78 4.55 4.55 0 0 1-.6-3.7 2.68 2.68 0 0 1 .76-1.13 14.5 14.5 0 0 1 .43-3.53C6.16 3.4 8.42 0 13.5 0a7.85 7.85 0 0 1 7.87 5.55 1 1 0 0 1-1.94.5A5.83 5.83 0 0 0 13.5 2C8.73 2 7.64 5.66 7.6 5.8a13.03 13.03 0 0 0-.36 3.48 1 1 0 0 1-.62.98.72.72 0 0 0-.28.4 2.95 2.95 0 0 0 .5 2.04.25.25 0 0 0 .08.06 1.78 1.78 0 0 1 .7.8.95.95 0 0 1 .04.12 12.34 12.34 0 0 0 3.7 4.63 1 1 0 0 1 .03 1.7A29.97 29.97 0 0 1 6 22.8c-3.86 1.46-4.1 4.1-4.05 7.93a1.27 1.27 0 0 0 1 1.24H8.8a1 1 0 0 1 0 2z"/><path id="Path-3" data-name="Path" class="cls-2" d="M42.4 33.9h-5.56a1 1 0 0 1 0-2h5.55a1.27 1.27 0 0 0 1-1.23c0-3.84-.2-6.47-4.1-7.93a27.14 27.14 0 0 1-5.4-2.9 1 1 0 0 1 .2-1.72c1.7-.77 3.4-3.75 3.6-4.44a.95.95 0 0 1 0-.1 1.78 1.78 0 0 1 .7-.82.23.23 0 0 0 .1-.06 2.94 2.94 0 0 0 .5-2.04.68.68 0 0 0-.3-.4 1.07 1.07 0 0 1-.6-.98 13.02 13.02 0 0 0-.38-3.48C37.7 5.66 36.6 2 31.82 2a5.57 5.57 0 0 0-5.76 4.02 1 1 0 0 1-1.96-.44A7.57 7.57 0 0 1 31.87 0c5.1 0 7.4 3.46 7.88 5.3a14.47 14.47 0 0 1 .43 3.52 2.68 2.68 0 0 1 .77 1.14 4.56 4.56 0 0 1-.6 3.7 2.07 2.07 0 0 1-.75.77 13.24 13.24 0 0 1-3.23 4.6 23.37 23.37 0 0 0 3.7 1.84c5.46 2.06 5.4 6.55 5.34 9.83a3.23 3.23 0 0 1-3 3.2z"/></g></svg>