<svg xmlns="http://www.w3.org/2000/svg" viewBox="0 0 46 47"><defs><style>.cls-1 { filter: url(#filter); } .cls-2 { fill: #0e81ff; fill-rule: evenodd; }</style><filter id="filter" filterUnits="userSpaceOnUse"><feFlood result="flood" flood-color="#7be352"/><feComposite result="composite" operator="in" in2="SourceGraphic"/><feBlend result="blend" in2="SourceGraphic"/></filter></defs><g id="large-buildin-3" class="cls-1"><path id="Composite_Path" d="M17 20.86h-4a1 1 0 0 1-1-1v-4.03a1 1 0 0 1 1-1h4a1 1 0 0 1 1 1v4.02a1 1 0 0 1-1 1zm-3-2.02h2v-2h-2v2z" data-name="Composite Path" class="cls-2"/><path id="Composite_Path-2" d="M25 20.86h-4a1 1 0 0 1-1-1v-4.03a1 1 0 0 1 1-1h4a1 1 0 0 1 1 1v4.02a1 1 0 0 1-1 1zm-3-2.02h2v-2h-2v2z" data-name="Composite Path" class="cls-2"/><path id="Composite_Path-3" d="M33 20.86h-4a1 1 0 0 1-1-1v-4.03a1 1 0 0 1 1-1h4a1 1 0 0 1 1 1v4.02a1 1 0 0 1-1 1zm-3-2.02h2v-2h-2v2z" data-name="Composite Path" class="cls-2"/><path id="Composite_Path-4" d="M17 28.9h-4a1 1 0 0 1-1-1v-4.03a1 1 0 0 1 1-1h4a1 1 0 0 1 1 1v4.03a1 1 0 0 1-1 1zm-3-2h2v-2.02h-2v2z" data-name="Composite Path" class="cls-2"/><path id="Composite_Path-5" d="M25 28.9h-4a1 1 0 0 1-1-1v-4.03a1 1 0 0 1 1-1h4a1 1 0 0 1 1 1v4.03a1 1 0 0 1-1 1zm-3-2h2v-2.02h-2v2z" data-name="Composite Path" class="cls-2"/><path id="Composite_Path-6" d="M33 28.9h-4a1 1 0 0 1-1-1v-4.03a1 1 0 0 1 1-1h4a1 1 0 0 1 1 1v4.03a1 1 0 0 1-1 1zm-3-2h2v-2.02h-2v2z" data-name="Composite Path" class="cls-2"/><path id="Composite_Path-7" d="M17 36.95h-4a1 1 0 0 1-1-1v-4.03a1 1 0 0 1 1-1h4a1 1 0 0 1 1 1v4.03a1 1 0 0 1-1 1zm-3-2h2v-2.02h-2v2z" data-name="Composite Path" class="cls-2"/><path id="Composite_Path-8" d="M25 36.95h-4a1 1 0 0 1-1-1v-4.03a1 1 0 0 1 1-1h4a1 1 0 0 1 1 1v4.03a1 1 0 0 1-1 1zm-3-2h2v-2.02h-2v2z" data-name="Composite Path" class="cls-2"/><path id="Composite_Path-9" d="M33 36.95h-4a1 1 0 0 1-1-1v-4.03a1 1 0 0 1 1-1h4a1 1 0 0 1 1 1v4.03a1 1 0 0 1-1 1zm-3-2h2v-2.02h-2v2z" data-name="Composite Path" class="cls-2"/><path id="Path" d="M37 47a1 1 0 0 1-1-1V12.8a1 1 0 0 0-1-1H11a1 1 0 0 0-1 1V46a1 1 0 0 1-2 0V12.8a3 3 0 0 1 3-3h24a3 3 0 0 1 3 3V46a1 1 0 0 1-1 1z" class="cls-2"/><path id="Path-2" d="M45 47H1a1 1 0 0 1 0-2h44a1 1 0 0 1 0 2z" data-name="Path" class="cls-2"/><path id="Path-3" d="M29 47a1 1 0 0 1-1-1v-6.03H18V46a1 1 0 0 1-2 0v-7.03a1 1 0 0 1 1-1h12a1 1 0 0 1 1 1V46a1 1 0 0 1-1 1z" data-name="Path" class="cls-2"/><path id="Path-4" d="M30 7.78a.98.98 0 0 1-.7-.3l-4.9-4.9a2 2 0 0 0-2.8 0l-4.9 4.9a1 1 0 1 1-1.4-1.42l4.87-4.9a3.98 3.98 0 0 1 5.66 0l4.88 4.9a1 1 0 0 1 0 1.42.98.98 0 0 1-.7.3z" data-name="Path" class="cls-2"/><path id="Path-5" d="M34 10.8a1 1 0 0 1-1-1V8.77a1 1 0 0 0-1-1H14a1 1 0 0 0-1 1v1a1 1 0 0 1-2 0v-1a3.02 3.02 0 0 1 3-3.02h18a3.02 3.02 0 0 1 3 3.02v1a1 1 0 0 1-1 1z" data-name="Path" class="cls-2"/><path id="Path-6" d="M44 47a1 1 0 0 1-1-1V15.84a1 1 0 0 0-1-1h-5a1 1 0 0 1 0-2.02h5a3 3 0 0 1 3 3.03V46a1 1 0 0 1-1 1z" data-name="Path" class="cls-2"/><path id="Path-7" d="M41 18.84h-4a1 1 0 0 1 0-2h4a1 1 0 0 1 0 2z" data-name="Path" class="cls-2"/><path id="Path-8" d="M41 22.87h-4a1 1 0 0 1 0-2h4a1 1 0 0 1 0 2z" data-name="Path" class="cls-2"/><path id="Path-9" d="M41 26.9h-4a1 1 0 0 1 0-2.02h4a1 1 0 0 1 0 2z" data-name="Path" class="cls-2"/><path id="Path-10" d="M41 30.92h-4a1 1 0 0 1 0-2.02h4a1 1 0 0 1 0 2.02z" data-name="Path" class="cls-2"/><path id="Path-11" d="M41 34.94h-4a1 1 0 0 1 0-2h4a1 1 0 0 1 0 2z" data-name="Path" class="cls-2"/><path id="Path-12" d="M41 38.97h-4a1 1 0 0 1 0-2.02h4a1 1 0 0 1 0 2.02z" data-name="Path" class="cls-2"/><path id="Path-13" d="M41 43h-4a1 1 0 0 1 0-2.02h4a1 1 0 0 1 0 2z" data-name="Path" class="cls-2"/><path id="Path-14" d="M2 47a1 1 0 0 1-1-1V15.84a3 3 0 0 1 3-3.02h5a1 1 0 0 1 0 2.02H4a1 1 0 0 0-1 1v30.2a1 1 0 0 1-1 1z" data-name="Path" class="cls-2"/><path id="Path-15" d="M9 18.84H5a1 1 0 0 1 0-2h4a1 1 0 0 1 0 2z" data-name="Path" class="cls-2"/><path id="Path-16" d="M9 22.87H5a1 1 0 0 1 0-2h4a1 1 0 0 1 0 2z" data-name="Path" class="cls-2"/><path id="Path-17" d="M9 26.9H5a1 1 0 0 1 0-2.02h4a1 1 0 0 1 0 2z" data-name="Path" class="cls-2"/><path id="Path-18" d="M9 30.92H5a1 1 0 0 1 0-2.02h4a1 1 0 0 1 0 2.02z" data-name="Path" class="cls-2"/><path id="Path-19" d="M9 34.94H5a1 1 0 0 1 0-2h4a1 1 0 0 1 0 2z" data-name="Path" class="cls-2"/><path id="Path-20" d="M9 38.97H5a1 1 0 0 1 0-2.02h4a1 1 0 0 1 0 2.02z" data-name="Path" class="cls-2"/><path id="Path-21" d="M9 43H5a1 1 0 0 1 0-2.02h4a1 1 0 0 1 0 2z" data-name="Path" class="cls-2"/></g></svg>