<svg xmlns="http://www.w3.org/2000/svg" width="46.031" height="46.03"><defs><style>.cls-1 { fill: #7be352; fill-rule: evenodd; }</style></defs><path id="Composite_Path" data-name="Composite Path" class="cls-1" d="M41.56 3.06c-.851-.82-1.486-1.43-1.486-1.43a5.556 5.556 0 0 0-7.883 0l-2.805 2.82a5.614 5.614 0 0 0 0 7.91l.915.91a7.485 7.485 0 0 1 1.91 7.41c-1.969 6.59-7.308 9.73-11.44 11.21a7.48 7.48 0 0 1-7.535-1.51l-.951-.86a5.556 5.556 0 0 0-7.883 0l-2.805 2.81a5.613 5.613 0 0 0 0 7.91l1.509 1.52a14.492 14.492 0 0 0 10.254 4.27 14 14 0 0 0 5.827-1.27 55.925 55.925 0 0 0 15.5-11.31 48.541 48.541 0 0 0 10.222-14.44A14.421 14.421 0 0 0 41.56 3.06zM30.811 5.88l2.8-2.82a3.628 3.628 0 0 1 5.052.02s.393.37.971.93l-7.863 7.89c-.018-.02-.033-.04-.05-.06l-.915-.91a3.585 3.585 0 0 1 .005-5.05zM3.022 38.82a3.6 3.6 0 0 1 0-5.06l2.8-2.81a3.538 3.538 0 0 1 5.07.04l.988.89c.177.16.37.29.555.44l-7.947 7.97zm40.033-20.61a46.477 46.477 0 0 1-9.795 13.81 53.718 53.718 0 0 1-14.911 10.9 12.278 12.278 0 0 1-12.32-1.31l8.13-8.16-.093-.09a9.455 9.455 0 0 0 7.381.43c4.571-1.63 10.483-5.13 12.694-12.53a9.4 9.4 0 0 0-1.113-7.75l8.012-8.04a12.329 12.329 0 0 1 2.015 12.74z"/></svg>