<svg xmlns="http://www.w3.org/2000/svg" width="44" height="44"><defs><style>.cls-1 { filter: url(#filter); } .cls-2 { fill: #1182ff; fill-rule: evenodd; }</style><filter id="filter" filterUnits="userSpaceOnUse"><feFlood result="flood" flood-color="#7be352"/><feComposite result="composite" operator="in" in2="SourceGraphic"/><feBlend result="blend" in2="SourceGraphic"/></filter></defs><g id="sun" class="cls-1"><path id="Composite_Path" data-name="Composite Path" class="cls-2" d="M22 34.5A12.5 12.5 0 1 1 34.5 22 12.5 12.5 0 0 1 22 34.5zm0-23A10.5 10.5 0 1 0 32.5 22 10.5 10.5 0 0 0 22 11.5z"/><path id="Path" class="cls-2" d="M42 23h-3a1 1 0 0 1 0-2h3a1 1 0 0 1 0 2z"/><path id="Path-2" data-name="Path" class="cls-2" d="M43 23h-4a1 1 0 0 1 0-2h4a1 1 0 0 1 0 2z"/><path id="Path-3" data-name="Path" class="cls-2" d="M4 23H1a1 1 0 0 1 0-2h3a1 1 0 0 1 0 2z"/><path id="Path-4" data-name="Path" class="cls-2" d="M5 23H1a1 1 0 0 1 0-2h4a1 1 0 0 1 0 2z"/><path id="Path-5" data-name="Path" class="cls-2" d="M22 43a1 1 0 0 1-1-1v-3a1 1 0 0 1 2 0v3a1 1 0 0 1-1 1z"/><path id="Path-6" data-name="Path" class="cls-2" d="M22 44a1 1 0 0 1-1-1v-4a1 1 0 0 1 2 0v4a1 1 0 0 1-1 1z"/><path id="Path-7" data-name="Path" class="cls-2" d="M22 5a1 1 0 0 1-1-1V1a1 1 0 0 1 2 0v3a1 1 0 0 1-1 1z"/><path id="Path-8" data-name="Path" class="cls-2" d="M22 6a1 1 0 0 1-1-1V1a1 1 0 0 1 2 0v4a1 1 0 0 1-1 1z"/><path id="Path-9" data-name="Path" class="cls-2" d="M36.4 37.4a1 1 0 0 1-.7-.3L33 34.6a1 1 0 0 1 1.5-1.4l2.6 2.7a1 1 0 0 1 0 1.4 1 1 0 0 1-.6.4z"/><path id="Path-10" data-name="Path" class="cls-2" d="M37 38a1 1 0 0 1-.7-.3L33 34.5a1 1 0 0 1 1.5-1.4l3.2 3.3a1 1 0 0 1 0 1.4 1 1 0 0 1-.7.3z"/><path id="Path-11" data-name="Path" class="cls-2" d="M9.6 10.6a1 1 0 0 1-.7-.3L6.2 7.7a1 1 0 0 1 1.4-1.4L10.3 9a1 1 0 0 1 0 1.3 1 1 0 0 1-.7.3z"/><path id="Path-12" data-name="Path" class="cls-2" d="M10.2 11.2a1 1 0 0 1-.7-.3L6.3 7.6a1 1 0 0 1 1.4-1.4L11 9.5a1 1 0 0 1 0 1.4 1 1 0 0 1-.8.2z"/><path id="Path-13" data-name="Path" class="cls-2" d="M7.6 37.4A1 1 0 0 1 7 37a1 1 0 0 1 0-1.3L9.4 33a1 1 0 0 1 1.4 1.5L8.2 37a1 1 0 0 1-.7.4z"/><path id="Path-14" data-name="Path" class="cls-2" d="M7 38a1 1 0 0 1-.7-.3 1 1 0 0 1 0-1.4L9.5 33a1 1 0 0 1 1.4 1.5l-3.3 3.2a1 1 0 0 1-.7.3z"/><path id="Path-15" data-name="Path" class="cls-2" d="M34.4 10.6a1 1 0 0 1-.7-.3 1 1 0 0 1 0-1.4l2.6-2.7a1 1 0 0 1 1.4 0 1 1 0 0 1 0 1.4L35 10.3a1 1 0 0 1-.6.3z"/><path id="Path-16" data-name="Path" class="cls-2" d="M33.8 11.2a1 1 0 0 1-.8-.3 1 1 0 0 1 0-1.5l3.3-3.2a1 1 0 0 1 1.4 0 1 1 0 0 1 0 1.4L34.5 11a1 1 0 0 1-.7.2z"/></g></svg>