<svg xmlns="http://www.w3.org/2000/svg" xmlns:xlink="http://www.w3.org/1999/xlink" width="44" height="44" viewBox="0 0 44 44">
  <metadata><?xpacket begin="﻿" id="W5M0MpCehiHzreSzNTczkc9d"?>
<x:xmpmeta xmlns:x="adobe:ns:meta/" x:xmptk="Adobe XMP Core 5.6-c138 79.159824, 2016/09/14-01:09:01        ">
   <rdf:RDF xmlns:rdf="http://www.w3.org/1999/02/22-rdf-syntax-ns#">
      <rdf:Description rdf:about=""/>
   </rdf:RDF>
</x:xmpmeta>
                                                                                                    
                                                                                                    
                                                                                                    
                                                                                                    
                                                                                                    
                                                                                                    
                                                                                                    
                                                                                                    
                                                                                                    
                                                                                                    
                                                                                                    
                                                                                                    
                                                                                                    
                                                                                                    
                                                                                                    
                                                                                                    
                                                                                                    
                                                                                                    
                                                                                                    
                                                                                                    
                           
<?xpacket end="w"?></metadata>
<defs>
    <style>
      .cls-1 {
        filter: url(#filter);
      }

      .cls-2 {
        fill: #1182ff;
        fill-rule: evenodd;
      }
    </style>
    <filter id="filter" filterUnits="userSpaceOnUse">
      <feFlood result="flood" flood-color="#7be352"/>
      <feComposite result="composite" operator="in" in2="SourceGraphic"/>
      <feBlend result="blend" in2="SourceGraphic"/>
    </filter>
  </defs>
  <g id="sun" class="cls-1">
    <path id="Composite_Path" data-name="Composite Path" class="cls-2" d="M1010,6227.51a12.505,12.505,0,1,1,12.5-12.51A12.52,12.52,0,0,1,1010,6227.51Zm0-23.01a10.505,10.505,0,1,0,10.5,10.5A10.512,10.512,0,0,0,1010,6204.5Z" transform="translate(-988 -6193)"/>
    <path id="Path" class="cls-2" d="M1030,6216h-3a1,1,0,0,1,0-2h3A1,1,0,0,1,1030,6216Z" transform="translate(-988 -6193)"/>
    <path id="Path-2" data-name="Path" class="cls-2" d="M1031,6216h-4a1,1,0,0,1,0-2h4A1,1,0,0,1,1031,6216Z" transform="translate(-988 -6193)"/>
    <path id="Path-3" data-name="Path" class="cls-2" d="M992,6216h-3a1,1,0,0,1,0-2h3A1,1,0,0,1,992,6216Z" transform="translate(-988 -6193)"/>
    <path id="Path-4" data-name="Path" class="cls-2" d="M993,6216h-4a1,1,0,0,1,0-2h4A1,1,0,0,1,993,6216Z" transform="translate(-988 -6193)"/>
    <path id="Path-5" data-name="Path" class="cls-2" d="M1010,6236.01a1,1,0,0,1-1-1v-3a1,1,0,0,1,2,0v3A1,1,0,0,1,1010,6236.01Z" transform="translate(-988 -6193)"/>
    <path id="Path-6" data-name="Path" class="cls-2" d="M1010,6237.01a1,1,0,0,1-1-1v-4a1,1,0,0,1,2,0v4A1,1,0,0,1,1010,6237.01Z" transform="translate(-988 -6193)"/>
    <path id="Path-7" data-name="Path" class="cls-2" d="M1010,6197.99a1,1,0,0,1-1-1v-3a1,1,0,0,1,2,0v3A1,1,0,0,1,1010,6197.99Z" transform="translate(-988 -6193)"/>
    <path id="Path-8" data-name="Path" class="cls-2" d="M1010,6198.99a1,1,0,0,1-1-1v-4a1,1,0,0,1,2,0v4A1,1,0,0,1,1010,6198.99Z" transform="translate(-988 -6193)"/>
    <path id="Path-9" data-name="Path" class="cls-2" d="M1024.37,6230.38a0.96,0.96,0,0,1-.7-0.29l-2.62-2.61a1,1,0,0,1,1.42-1.42l2.61,2.62a1,1,0,0,1,0,1.41A0.982,0.982,0,0,1,1024.37,6230.38Z" transform="translate(-988 -6193)"/>
    <path id="Path-10" data-name="Path" class="cls-2" d="M1025.03,6231.04a0.976,0.976,0,0,1-.71-0.3l-3.27-3.26a1,1,0,0,1,1.42-1.42l3.26,3.27a1,1,0,0,1,0,1.41A0.97,0.97,0,0,1,1025.03,6231.04Z" transform="translate(-988 -6193)"/>
    <path id="Path-11" data-name="Path" class="cls-2" d="M997.587,6203.58a0.975,0.975,0,0,1-.707-0.29l-2.613-2.61a1,1,0,0,1,1.414-1.42l2.613,2.62a0.994,0.994,0,0,1,0,1.41A0.974,0.974,0,0,1,997.587,6203.58Z" transform="translate(-988 -6193)"/>
    <path id="Path-12" data-name="Path" class="cls-2" d="M998.241,6204.24a1.016,1.016,0,0,1-.707-0.29l-3.267-3.27a1,1,0,0,1,1.414-1.42l3.267,3.27a1.008,1.008,0,0,1,0,1.42A1.019,1.019,0,0,1,998.241,6204.24Z" transform="translate(-988 -6193)"/>
    <path id="Path-13" data-name="Path" class="cls-2" d="M995.627,6230.38a0.977,0.977,0,0,1-.707-0.29,1,1,0,0,1,0-1.41l2.614-2.62a1,1,0,0,1,1.414,1.42l-2.614,2.61A0.974,0.974,0,0,1,995.627,6230.38Z" transform="translate(-988 -6193)"/>
    <path id="Path-14" data-name="Path" class="cls-2" d="M994.974,6231.04a0.984,0.984,0,0,1-.707-0.3,0.994,0.994,0,0,1,0-1.41l3.267-3.27a1,1,0,0,1,1.414,1.42l-3.267,3.26A0.984,0.984,0,0,1,994.974,6231.04Z" transform="translate(-988 -6193)"/>
    <path id="Path-15" data-name="Path" class="cls-2" d="M1022.41,6203.58a0.96,0.96,0,0,1-.7-0.29,0.978,0.978,0,0,1,0-1.41l2.61-2.62a1,1,0,0,1,1.41,0,1.008,1.008,0,0,1,0,1.42l-2.61,2.61A0.982,0.982,0,0,1,1022.41,6203.58Z" transform="translate(-988 -6193)"/>
    <path id="Path-16" data-name="Path" class="cls-2" d="M1021.76,6204.24a1.024,1.024,0,0,1-.71-0.29,1.008,1.008,0,0,1,0-1.42l3.27-3.27a1,1,0,0,1,1.41,0,1.008,1.008,0,0,1,0,1.42l-3.26,3.27A1.024,1.024,0,0,1,1021.76,6204.24Z" transform="translate(-988 -6193)"/>
  </g>
</svg>
