<svg xmlns="http://www.w3.org/2000/svg" width="38" height="42"><defs><style>.cls-1 { filter: url(#filter); } .cls-2 { fill: #0e81ff; fill-rule: evenodd; }</style><filter id="filter" filterUnits="userSpaceOnUse"><feFlood result="flood" flood-color="#7be352"/><feComposite result="composite" operator="in" in2="SourceGraphic"/><feBlend result="blend" in2="SourceGraphic"/></filter></defs><g id="fire" class="cls-1"><path id="Composite_Path" d="M37 42H1a1 1 0 0 1-1-1V21a1 1 0 0 1 1-1h36a1 1 0 0 1 1 1v20a1 1 0 0 1-1 1zM2 40h34V22H2v18z" data-name="Composite Path" class="cls-2"/><path id="Path" d="M37 37H1a1 1 0 0 1 0-2h36a1 1 0 0 1 0 2z" class="cls-2"/><path id="Path-2" d="M37 32H1a1 1 0 0 1 0-2h36a1 1 0 0 1 0 2z" data-name="Path" class="cls-2"/><path id="Path-3" d="M37 27H1a1 1 0 0 1 0-2h36a1 1 0 0 1 0 2z" data-name="Path" class="cls-2"/><path id="Path-4" d="M10 26a1 1 0 0 1-1-1v-3a1 1 0 0 1 2 0v3a1 1 0 0 1-1 1z" data-name="Path" class="cls-2"/><path id="Path-5" d="M19 26a1 1 0 0 1-1-1v-3a1 1 0 0 1 2 0v3a1 1 0 0 1-1 1z" data-name="Path" class="cls-2"/><path id="Path-6" d="M28 26a1 1 0 0 1-1-1v-3a1 1 0 0 1 2 0v3a1 1 0 0 1-1 1z" data-name="Path" class="cls-2"/><path id="Path-7" d="M5 31a1 1 0 0 1-1-1v-3a1 1 0 0 1 2 0v3a1 1 0 0 1-1 1z" data-name="Path" class="cls-2"/><path id="Path-8" d="M14 31a1 1 0 0 1-1-1v-3a1 1 0 0 1 2 0v3a1 1 0 0 1-1 1z" data-name="Path" class="cls-2"/><path id="Path-9" d="M23 31a1 1 0 0 1-1-1v-3a1 1 0 0 1 2 0v3a1 1 0 0 1-1 1z" data-name="Path" class="cls-2"/><path id="Path-10" d="M33 31a1 1 0 0 1-1-1v-3a1 1 0 0 1 2 0v3a1 1 0 0 1-1 1z" data-name="Path" class="cls-2"/><path id="Path-11" d="M10 36a1 1 0 0 1-1-1v-3a1 1 0 0 1 2 0v3a1 1 0 0 1-1 1z" data-name="Path" class="cls-2"/><path id="Path-12" d="M19 36a1 1 0 0 1-1-1v-3a1 1 0 0 1 2 0v3a1 1 0 0 1-1 1z" data-name="Path" class="cls-2"/><path id="Path-13" d="M28 36a1 1 0 0 1-1-1v-3a1 1 0 0 1 2 0v3a1 1 0 0 1-1 1z" data-name="Path" class="cls-2"/><path id="Path-14" d="M5 41a1 1 0 0 1-1-1v-3a1 1 0 0 1 2 0v3a1 1 0 0 1-1 1z" data-name="Path" class="cls-2"/><path id="Path-15" d="M14 41a1 1 0 0 1-1-1v-3a1 1 0 0 1 2 0v3a1 1 0 0 1-1 1z" data-name="Path" class="cls-2"/><path id="Path-16" d="M23 41a1 1 0 0 1-1-1v-3a1 1 0 0 1 2 0v3a1 1 0 0 1-1 1z" data-name="Path" class="cls-2"/><path id="Path-17" d="M33 41a1 1 0 0 1-1-1v-3a1 1 0 0 1 2 0v3a1 1 0 0 1-1 1z" data-name="Path" class="cls-2"/><path id="Composite_Path-2" d="M37 22H1a1 1 0 0 1-1-1V1a1 1 0 0 1 1-1h36a1 1 0 0 1 1 1v20a1 1 0 0 1-1 1zM2 20h34V2H2v18z" data-name="Composite Path" class="cls-2"/><path id="Path-18" d="M37 17H1a1 1 0 0 1 0-2h36a1 1 0 0 1 0 2z" data-name="Path" class="cls-2"/><path id="Path-19" d="M37 12H1a1 1 0 0 1 0-2h36a1 1 0 0 1 0 2z" data-name="Path" class="cls-2"/><path id="Path-20" d="M37 7H1a1 1 0 0 1 0-2h36a1 1 0 0 1 0 2z" data-name="Path" class="cls-2"/><path id="Path-21" d="M10 6a1 1 0 0 1-1-1V2a1 1 0 0 1 2 0v3a1 1 0 0 1-1 1z" data-name="Path" class="cls-2"/><path id="Path-22" d="M19 6a1 1 0 0 1-1-1V2a1 1 0 0 1 2 0v3a1 1 0 0 1-1 1z" data-name="Path" class="cls-2"/><path id="Path-23" d="M28 6a1 1 0 0 1-1-1V2a1 1 0 0 1 2 0v3a1 1 0 0 1-1 1z" data-name="Path" class="cls-2"/><path id="Path-24" d="M5 11a1 1 0 0 1-1-1V7a1 1 0 0 1 2 0v3a1 1 0 0 1-1 1z" data-name="Path" class="cls-2"/><path id="Path-25" d="M14 11a1 1 0 0 1-1-1V7a1 1 0 0 1 2 0v3a1 1 0 0 1-1 1z" data-name="Path" class="cls-2"/><path id="Path-26" d="M23 11a1 1 0 0 1-1-1V7a1 1 0 0 1 2 0v3a1 1 0 0 1-1 1z" data-name="Path" class="cls-2"/><path id="Path-27" d="M33 11a1 1 0 0 1-1-1V7a1 1 0 0 1 2 0v3a1 1 0 0 1-1 1z" data-name="Path" class="cls-2"/><path id="Path-28" d="M10 16a1 1 0 0 1-1-1v-3a1 1 0 0 1 2 0v3a1 1 0 0 1-1 1z" data-name="Path" class="cls-2"/><path id="Path-29" d="M19 16a1 1 0 0 1-1-1v-3a1 1 0 0 1 2 0v3a1 1 0 0 1-1 1z" data-name="Path" class="cls-2"/><path id="Path-30" d="M28 16a1 1 0 0 1-1-1v-3a1 1 0 0 1 2 0v3a1 1 0 0 1-1 1z" data-name="Path" class="cls-2"/><path id="Path-31" d="M5 21a1 1 0 0 1-1-1v-3a1 1 0 0 1 2 0v3a1 1 0 0 1-1 1z" data-name="Path" class="cls-2"/><path id="Path-32" d="M14 21a1 1 0 0 1-1-1v-3a1 1 0 0 1 2 0v3a1 1 0 0 1-1 1z" data-name="Path" class="cls-2"/><path id="Path-33" d="M23 21a1 1 0 0 1-1-1v-3a1 1 0 0 1 2 0v3a1 1 0 0 1-1 1z" data-name="Path" class="cls-2"/><path id="Path-34" d="M33 21a1 1 0 0 1-1-1v-3a1 1 0 0 1 2 0v3a1 1 0 0 1-1 1z" data-name="Path" class="cls-2"/></g></svg>