<svg xmlns="http://www.w3.org/2000/svg" xmlns:xlink="http://www.w3.org/1999/xlink" width="38" height="42" viewBox="0 0 38 42">
  <metadata><?xpacket begin="﻿" id="W5M0MpCehiHzreSzNTczkc9d"?>
<x:xmpmeta xmlns:x="adobe:ns:meta/" x:xmptk="Adobe XMP Core 5.6-c138 79.159824, 2016/09/14-01:09:01        ">
   <rdf:RDF xmlns:rdf="http://www.w3.org/1999/02/22-rdf-syntax-ns#">
      <rdf:Description rdf:about=""/>
   </rdf:RDF>
</x:xmpmeta>
                                                                                                    
                                                                                                    
                                                                                                    
                                                                                                    
                                                                                                    
                                                                                                    
                                                                                                    
                                                                                                    
                                                                                                    
                                                                                                    
                                                                                                    
                                                                                                    
                                                                                                    
                                                                                                    
                                                                                                    
                                                                                                    
                                                                                                    
                                                                                                    
                                                                                                    
                                                                                                    
                           
<?xpacket end="w"?></metadata>
<defs>
    <style>
      .cls-1 {
        filter: url(#filter);
      }

      .cls-2 {
        fill: #0e81ff;
        fill-rule: evenodd;
      }
    </style>
    <filter id="filter" filterUnits="userSpaceOnUse">
      <feFlood result="flood" flood-color="#7be352"/>
      <feComposite result="composite" operator="in" in2="SourceGraphic"/>
      <feBlend result="blend" in2="SourceGraphic"/>
    </filter>
  </defs>
  <g id="fire" class="cls-1">
    <path id="Composite_Path" data-name="Composite Path" class="cls-2" d="M528,6085H492a1,1,0,0,1-1-1v-20a1,1,0,0,1,1-1h36a1,1,0,0,1,1,1v20A1,1,0,0,1,528,6085Zm-35-2h34v-18H493v18Z" transform="translate(-491 -6043)"/>
    <path id="Path" class="cls-2" d="M528,6080H492a1,1,0,0,1,0-2h36A1,1,0,0,1,528,6080Z" transform="translate(-491 -6043)"/>
    <path id="Path-2" data-name="Path" class="cls-2" d="M528,6075H492a1,1,0,0,1,0-2h36A1,1,0,0,1,528,6075Z" transform="translate(-491 -6043)"/>
    <path id="Path-3" data-name="Path" class="cls-2" d="M528,6070H492a1,1,0,0,1,0-2h36A1,1,0,0,1,528,6070Z" transform="translate(-491 -6043)"/>
    <path id="Path-4" data-name="Path" class="cls-2" d="M501,6069a1,1,0,0,1-1-1v-3a1,1,0,0,1,2,0v3A1,1,0,0,1,501,6069Z" transform="translate(-491 -6043)"/>
    <path id="Path-5" data-name="Path" class="cls-2" d="M510,6069a1,1,0,0,1-1-1v-3a1,1,0,0,1,2,0v3A1,1,0,0,1,510,6069Z" transform="translate(-491 -6043)"/>
    <path id="Path-6" data-name="Path" class="cls-2" d="M519,6069a1,1,0,0,1-1-1v-3a1,1,0,0,1,2,0v3A1,1,0,0,1,519,6069Z" transform="translate(-491 -6043)"/>
    <path id="Path-7" data-name="Path" class="cls-2" d="M496,6074a1,1,0,0,1-1-1v-3a1,1,0,0,1,2,0v3A1,1,0,0,1,496,6074Z" transform="translate(-491 -6043)"/>
    <path id="Path-8" data-name="Path" class="cls-2" d="M505,6074a1,1,0,0,1-1-1v-3a1,1,0,0,1,2,0v3A1,1,0,0,1,505,6074Z" transform="translate(-491 -6043)"/>
    <path id="Path-9" data-name="Path" class="cls-2" d="M514,6074a1,1,0,0,1-1-1v-3a1,1,0,0,1,2,0v3A1,1,0,0,1,514,6074Z" transform="translate(-491 -6043)"/>
    <path id="Path-10" data-name="Path" class="cls-2" d="M524,6074a1,1,0,0,1-1-1v-3a1,1,0,0,1,2,0v3A1,1,0,0,1,524,6074Z" transform="translate(-491 -6043)"/>
    <path id="Path-11" data-name="Path" class="cls-2" d="M501,6079a1,1,0,0,1-1-1v-3a1,1,0,0,1,2,0v3A1,1,0,0,1,501,6079Z" transform="translate(-491 -6043)"/>
    <path id="Path-12" data-name="Path" class="cls-2" d="M510,6079a1,1,0,0,1-1-1v-3a1,1,0,0,1,2,0v3A1,1,0,0,1,510,6079Z" transform="translate(-491 -6043)"/>
    <path id="Path-13" data-name="Path" class="cls-2" d="M519,6079a1,1,0,0,1-1-1v-3a1,1,0,0,1,2,0v3A1,1,0,0,1,519,6079Z" transform="translate(-491 -6043)"/>
    <path id="Path-14" data-name="Path" class="cls-2" d="M496,6084a1,1,0,0,1-1-1v-3a1,1,0,0,1,2,0v3A1,1,0,0,1,496,6084Z" transform="translate(-491 -6043)"/>
    <path id="Path-15" data-name="Path" class="cls-2" d="M505,6084a1,1,0,0,1-1-1v-3a1,1,0,0,1,2,0v3A1,1,0,0,1,505,6084Z" transform="translate(-491 -6043)"/>
    <path id="Path-16" data-name="Path" class="cls-2" d="M514,6084a1,1,0,0,1-1-1v-3a1,1,0,0,1,2,0v3A1,1,0,0,1,514,6084Z" transform="translate(-491 -6043)"/>
    <path id="Path-17" data-name="Path" class="cls-2" d="M524,6084a1,1,0,0,1-1-1v-3a1,1,0,0,1,2,0v3A1,1,0,0,1,524,6084Z" transform="translate(-491 -6043)"/>
    <path id="Composite_Path-2" data-name="Composite Path" class="cls-2" d="M528,6065H492a1,1,0,0,1-1-1v-20a1,1,0,0,1,1-1h36a1,1,0,0,1,1,1v20A1,1,0,0,1,528,6065Zm-35-2h34v-18H493v18Z" transform="translate(-491 -6043)"/>
    <path id="Path-18" data-name="Path" class="cls-2" d="M528,6060H492a1,1,0,0,1,0-2h36A1,1,0,0,1,528,6060Z" transform="translate(-491 -6043)"/>
    <path id="Path-19" data-name="Path" class="cls-2" d="M528,6055H492a1,1,0,0,1,0-2h36A1,1,0,0,1,528,6055Z" transform="translate(-491 -6043)"/>
    <path id="Path-20" data-name="Path" class="cls-2" d="M528,6050H492a1,1,0,0,1,0-2h36A1,1,0,0,1,528,6050Z" transform="translate(-491 -6043)"/>
    <path id="Path-21" data-name="Path" class="cls-2" d="M501,6049a1,1,0,0,1-1-1v-3a1,1,0,0,1,2,0v3A1,1,0,0,1,501,6049Z" transform="translate(-491 -6043)"/>
    <path id="Path-22" data-name="Path" class="cls-2" d="M510,6049a1,1,0,0,1-1-1v-3a1,1,0,0,1,2,0v3A1,1,0,0,1,510,6049Z" transform="translate(-491 -6043)"/>
    <path id="Path-23" data-name="Path" class="cls-2" d="M519,6049a1,1,0,0,1-1-1v-3a1,1,0,0,1,2,0v3A1,1,0,0,1,519,6049Z" transform="translate(-491 -6043)"/>
    <path id="Path-24" data-name="Path" class="cls-2" d="M496,6054a1,1,0,0,1-1-1v-3a1,1,0,0,1,2,0v3A1,1,0,0,1,496,6054Z" transform="translate(-491 -6043)"/>
    <path id="Path-25" data-name="Path" class="cls-2" d="M505,6054a1,1,0,0,1-1-1v-3a1,1,0,0,1,2,0v3A1,1,0,0,1,505,6054Z" transform="translate(-491 -6043)"/>
    <path id="Path-26" data-name="Path" class="cls-2" d="M514,6054a1,1,0,0,1-1-1v-3a1,1,0,0,1,2,0v3A1,1,0,0,1,514,6054Z" transform="translate(-491 -6043)"/>
    <path id="Path-27" data-name="Path" class="cls-2" d="M524,6054a1,1,0,0,1-1-1v-3a1,1,0,0,1,2,0v3A1,1,0,0,1,524,6054Z" transform="translate(-491 -6043)"/>
    <path id="Path-28" data-name="Path" class="cls-2" d="M501,6059a1,1,0,0,1-1-1v-3a1,1,0,0,1,2,0v3A1,1,0,0,1,501,6059Z" transform="translate(-491 -6043)"/>
    <path id="Path-29" data-name="Path" class="cls-2" d="M510,6059a1,1,0,0,1-1-1v-3a1,1,0,0,1,2,0v3A1,1,0,0,1,510,6059Z" transform="translate(-491 -6043)"/>
    <path id="Path-30" data-name="Path" class="cls-2" d="M519,6059a1,1,0,0,1-1-1v-3a1,1,0,0,1,2,0v3A1,1,0,0,1,519,6059Z" transform="translate(-491 -6043)"/>
    <path id="Path-31" data-name="Path" class="cls-2" d="M496,6064a1,1,0,0,1-1-1v-3a1,1,0,0,1,2,0v3A1,1,0,0,1,496,6064Z" transform="translate(-491 -6043)"/>
    <path id="Path-32" data-name="Path" class="cls-2" d="M505,6064a1,1,0,0,1-1-1v-3a1,1,0,0,1,2,0v3A1,1,0,0,1,505,6064Z" transform="translate(-491 -6043)"/>
    <path id="Path-33" data-name="Path" class="cls-2" d="M514,6064a1,1,0,0,1-1-1v-3a1,1,0,0,1,2,0v3A1,1,0,0,1,514,6064Z" transform="translate(-491 -6043)"/>
    <path id="Path-34" data-name="Path" class="cls-2" d="M524,6064a1,1,0,0,1-1-1v-3a1,1,0,0,1,2,0v3A1,1,0,0,1,524,6064Z" transform="translate(-491 -6043)"/>
  </g>
</svg>
